<?xml version="1.0" encoding="utf-8"?>
<!-- Generator: Adobe Illustrator 16.0.0, SVG Export Plug-In . SVG Version: 6.00 Build 0)  -->
<!DOCTYPE svg PUBLIC "-//W3C//DTD SVG 1.1//EN" "http://www.w3.org/Graphics/SVG/1.1/DTD/svg11.dtd">
<svg version="1.1" id="TafelstellwerkBildmarke" xmlns="http://www.w3.org/2000/svg" xmlns:xlink="http://www.w3.org/1999/xlink" x="0px" y="0px"
	 width="320px" height="320px" viewBox="-8.085 -8.085 320 320" enable-background="new -8.085 -8.085 320 320"
	 xml:space="preserve">
<g>
	<path fill="#E36F0B" d="M111.377,51.171c-55.55,0-100.743,45.192-100.743,100.742c0,55.547,45.193,100.74,100.743,100.74
		c55.502,0,100.659-45.193,100.659-100.74C212.036,96.365,166.882,51.171,111.377,51.171z M151.959,211.466l0.101-112.935
		c0.006-0.068,0.006-0.138,0-0.206c0.015-0.624-0.479-1.14-1.103-1.156c-0.004,0-0.008,0-0.013,0c-0.041-0.002-0.083-0.002-0.125,0
		c-0.041-0.002-0.082-0.002-0.125,0c-0.102,0.027-0.199,0.068-0.289,0.124c0,0-0.12,0.08-0.124,0.082
		c-0.004,0-0.079,0.08-0.082,0.083c-0.029,0.012-0.057,0.027-0.083,0.041c-0.922,0.488-26.763,14.495-26.763,49.436
		c0,15.273,2.492,24.77,5.08,30.521c1.293,2.875,2.629,4.805,3.634,6.029c0.751,0.914,1.054,1.143,1.321,1.363l-0.195,35.777
		c-6.888,2.191-14.216,3.383-21.82,3.383c-4.482,0-8.864-0.43-13.123-1.215l-0.958-52.357l12.679-7.598
		c0.344-0.213,0.548-0.592,0.537-0.992l-0.125-63.603c-0.007-0.611-0.503-1.105-1.115-1.115l-6.566-0.041
		c-0.596,0.008-1.084,0.478-1.115,1.076l-1.982,45.098l-5.989,0.043l-0.826-45.1c-0.008-0.613-0.503-1.108-1.116-1.117h-5.905
		c-0.613,0.008-1.107,0.504-1.116,1.117l-0.785,45.1l-5.781,0.08l-2.23-45.223c-0.031-0.596-0.518-1.067-1.116-1.075
		c-0.027,0-0.055,0-0.082,0l-6.113,0.043c-0.612,0.008-1.107,0.502-1.115,1.115l-0.124,63.601c-0.02,0.395,0.169,0.771,0.495,0.992
		l12.019,7.598l0.492,46.549c-24.296-11.617-41.121-36.416-41.121-65.068c0-39.778,32.38-72.138,72.179-72.138
		c39.75,0,72.092,32.362,72.096,72.138C183.471,176.628,170.969,198.47,151.959,211.466z"/>
	<path fill="#E36F0B" d="M267.457,158.294c2.132,10.186,11.178,17.859,21.989,17.859c12.388,0,22.469-10.08,22.469-22.467
		c0-12.39-10.081-22.47-22.469-22.47c-10.812,0-19.857,7.675-21.989,17.862h-36.735c-0.529-22.895-7.46-44.715-19.94-63.395
		l24.549-24.55h32.127c2.132,10.185,11.178,17.86,21.991,17.86c12.388,0,22.467-10.08,22.467-22.468
		c0-12.389-10.081-22.469-22.469-22.469c-10.812,0-19.857,7.675-21.989,17.862H231.54v0.028l-0.027-0.028l-26.219,26.219
		c-2.927-3.717-6.087-7.287-9.481-10.686c-22.545-22.572-52.53-34.999-84.433-34.999c-65.873,0-119.464,53.589-119.464,119.463
		c0,65.871,53.591,119.463,119.464,119.463c31.903,0,61.888-12.432,84.433-35.004c3.432-3.436,6.625-7.046,9.578-10.807
		l26.122,26.119v0.02h35.944c2.132,10.186,11.178,17.859,21.989,17.859c12.388,0,22.469-10.08,22.469-22.467
		c0-12.391-10.081-22.471-22.469-22.471c-10.812,0-19.857,7.674-21.989,17.859h-32.113l-24.477-24.479
		c11.781-17.683,18.593-38.17,19.718-59.715H267.457z M289.446,140.695c7.173,0,12.988,5.816,12.988,12.991
		c0,7.174-5.815,12.988-12.988,12.988c-7.176,0-12.989-5.814-12.989-12.988C276.457,146.511,282.27,140.695,289.446,140.695z
		 M289.446,43.535c7.173,0,12.988,5.815,12.988,12.99c0,7.175-5.815,12.989-12.988,12.989c-7.176,0-12.989-5.813-12.989-12.989
		C276.457,49.351,282.27,43.535,289.446,43.535z M289.446,234.106c7.173,0,12.988,5.814,12.988,12.99
		c0,7.174-5.815,12.988-12.988,12.988c-7.176,0-12.989-5.814-12.989-12.988C276.457,239.921,282.27,234.106,289.446,234.106z
		 M189.026,229.597c-20.734,20.76-48.308,32.189-77.648,32.189c-60.584,0-109.875-49.287-109.875-109.871
		c0-60.585,49.289-109.874,109.875-109.874c29.34,0,56.914,11.431,77.648,32.189c20.727,20.75,32.141,48.339,32.141,77.684
		C221.167,181.257,209.753,208.845,189.026,229.597z"/>
</g>
</svg>