<?xml version="1.0" encoding="utf-8"?>
<!-- Generator: Adobe Illustrator 16.0.0, SVG Export Plug-In . SVG Version: 6.00 Build 0)  -->
<!DOCTYPE svg PUBLIC "-//W3C//DTD SVG 1.1//EN" "http://www.w3.org/Graphics/SVG/1.1/DTD/svg11.dtd">
<svg version="1.1" xmlns="http://www.w3.org/2000/svg" xmlns:xlink="http://www.w3.org/1999/xlink" x="0px" y="0px"
	 width="242.23px" height="82.01px" viewBox="0 0 242.23 82.01" enable-background="new 0 0 242.23 82.01" xml:space="preserve">
<g id="Logo_links">
	<g display="none">
		<path display="inline" opacity="0.25" d="M124.475,7.046c-0.617-0.151-1.242-0.228-1.854-0.228c-2.205,0-3.583,0.989-3.597,1
			l-25.24,19.92v6.695l3.348-2.73v-2.432c0-0.018,0.009-0.034,0.013-0.051c0.004-0.018,0.005-0.036,0.013-0.053
			c0.011-0.024,0.028-0.044,0.046-0.064c0.009-0.011,0.013-0.024,0.024-0.033l7.984-6.51c0.068-0.056,0.16-0.073,0.244-0.046
			c0.025,0.008,0.857,0.277,2.099,0.688l10.762-8.777c0.066-0.062,1.934-1.762,4.41-1.762c0.563,0,1.117,0.09,1.648,0.268
			c2.402,0.799,7.354,2.32,9.465,2.965l0.656-0.647V9.543L124.475,7.046z"/>
		<path display="inline" opacity="0.25" d="M93.265,27.796c-0.006-0.002-0.015-0.006-0.021-0.008
			c-0.035-0.013-0.075-0.028-0.122-0.046c-0.011-0.004-0.019-0.007-0.031-0.012c-0.058-0.022-0.127-0.049-0.204-0.079
			c-0.025-0.01-0.054-0.021-0.082-0.032c-0.061-0.024-0.128-0.051-0.201-0.08c-0.036-0.014-0.067-0.026-0.106-0.042
			c-0.099-0.04-0.208-0.083-0.329-0.132c-0.064-0.026-0.137-0.056-0.208-0.084c-0.071-0.029-0.144-0.059-0.222-0.09
			c-0.087-0.036-0.175-0.072-0.271-0.111c-0.157-0.064-0.326-0.134-0.508-0.209c-0.059-0.024-0.126-0.053-0.188-0.078
			c-0.157-0.065-0.322-0.134-0.498-0.207c-0.091-0.038-0.184-0.077-0.28-0.117c-0.253-0.105-0.517-0.216-0.808-0.338
			c-0.277-0.116-0.519-0.249-0.734-0.393c-0.063-0.042-0.109-0.092-0.167-0.137c-0.143-0.11-0.279-0.224-0.39-0.349
			c-0.012-0.014-0.031-0.024-0.043-0.038v6.976l5.413,2.392V27.796z"/>
		<polygon display="inline" opacity="0.25" points="140.19,4.933 135.016,9.482 135.016,14.737 140.19,9.633 		"/>
	</g>
	<g display="none">
		<path display="inline" d="M107.301,23.41c0.202,0.055,0.396,0.12,0.581,0.198l4.785-3.903c-0.005-0.07-0.017-0.14-0.017-0.211
			v-0.447L107.301,23.41z"/>
		<path display="inline" d="M140.191,9.976c0.156-0.186,0.332-0.356,0.52-0.516V4.358c0-0.01-0.007-0.018-0.008-0.028
			c-0.001-0.01,0.003-0.021,0.001-0.031c-0.004-0.016-0.017-0.027-0.022-0.042c-0.009-0.021-0.017-0.04-0.031-0.057
			c-0.017-0.021-0.036-0.035-0.058-0.05c-0.013-0.009-0.02-0.023-0.034-0.029c-0.007-0.003-0.014,0-0.021-0.003
			s-0.011-0.009-0.019-0.011l-15.427-4.199c-0.071-0.018-1.777-0.428-4.022-0.428c-2.927,0-5.394,0.717-7.131,2.072
			c-4.596,3.583-24.666,18.575-24.898,18.752c-0.078,0.078-1.745,1.818-1.697,3.521c-0.001,0.009-0.01,0.016-0.01,0.025v8.509
			c0,0.103,0.061,0.196,0.155,0.238l5.932,2.621c0.034,0.015,0.069,0.022,0.105,0.022c0.05,0,0.099-0.014,0.142-0.042
			c0.005-0.003,0.007-0.009,0.011-0.012c0.003-0.002,0.008-0.001,0.011-0.004l3.922-3.199c-0.008-0.227-0.006-0.455,0.013-0.681
			l-3.839,3.131v-6.695l25.24-19.92c0.014-0.01,1.393-1,3.598-1c0.611,0,1.235,0.077,1.854,0.228l10.021,2.497v6.068
			c0.162-0.137,0.334-0.266,0.52-0.381V9.481l5.174-4.549V9.976z M93.265,34.582l-5.413-2.392v-6.976
			c0.012,0.014,0.031,0.024,0.043,0.038c0.111,0.125,0.247,0.238,0.39,0.349c0.058,0.044,0.104,0.094,0.167,0.137
			c0.216,0.145,0.458,0.277,0.734,0.393c0.291,0.122,0.555,0.232,0.808,0.338c0.096,0.04,0.188,0.079,0.28,0.117
			c0.176,0.073,0.341,0.142,0.498,0.207c0.063,0.025,0.129,0.054,0.188,0.078c0.183,0.075,0.351,0.145,0.508,0.209
			c0.096,0.04,0.184,0.075,0.271,0.111c0.078,0.031,0.151,0.061,0.222,0.09c0.071,0.029,0.144,0.059,0.208,0.084
			c0.121,0.049,0.23,0.093,0.329,0.132c0.039,0.016,0.07,0.028,0.106,0.042c0.073,0.029,0.14,0.056,0.201,0.08
			c0.028,0.011,0.056,0.021,0.082,0.032c0.076,0.03,0.146,0.057,0.204,0.079c0.012,0.004,0.02,0.007,0.031,0.012
			c0.046,0.018,0.087,0.033,0.122,0.046c0.006,0.002,0.015,0.006,0.021,0.008V34.582z M139.142,5.162l-4.427,3.893L124.6,6.541
			c-0.659-0.161-1.325-0.243-1.978-0.243c-2.373,0-3.843,1.055-3.912,1.105L93.476,27.319c-0.002-0.001-0.004-0.001-0.007-0.002
			c-0.031-0.011-0.071-0.026-0.116-0.043c-0.024-0.009-0.054-0.021-0.083-0.032c-0.025-0.01-0.054-0.021-0.084-0.033
			c-0.037-0.014-0.074-0.028-0.117-0.045c-0.063-0.024-0.133-0.052-0.21-0.083c-0.049-0.019-0.105-0.042-0.161-0.064
			c-0.062-0.024-0.128-0.051-0.199-0.08c-0.052-0.021-0.102-0.041-0.159-0.064c-0.122-0.05-0.26-0.105-0.406-0.166
			c-0.061-0.025-0.126-0.052-0.191-0.078c-0.146-0.06-0.303-0.125-0.472-0.194c-0.04-0.016-0.075-0.031-0.116-0.047
			c-0.214-0.088-0.451-0.187-0.703-0.292c-0.06-0.025-0.123-0.051-0.186-0.077c-0.272-0.114-0.56-0.233-0.878-0.367
			c-0.234-0.098-0.435-0.207-0.615-0.325c-0.067-0.044-0.117-0.094-0.177-0.141c-0.104-0.081-0.207-0.163-0.289-0.253
			c-0.043-0.047-0.075-0.1-0.113-0.149c-0.078-0.106-0.15-0.216-0.2-0.334c-0.017-0.037-0.028-0.076-0.042-0.114
			c-0.046-0.136-0.075-0.279-0.087-0.43c-0.118-1.499,1.521-3.209,1.516-3.209c0.202-0.151,20.276-15.147,24.876-18.733
			C116.337,0.34,119.11,0,121.07,0c2.18,0,3.883,0.409,3.893,0.412l14.953,4.07L139.142,5.162z"/>
		<path display="inline" d="M134.112,15.979c-1.601-0.489-5.539-1.695-8.265-2.569c0.483,0.283,0.918,0.601,1.282,0.953
			c2.41,0.759,5.207,1.617,6.625,2.05C133.863,16.261,133.984,16.117,134.112,15.979z"/>
	</g>
</g>
<g id="Punkt">
	<path display="none" d="M120.562,12.083c-4.362,0-7.911,2.309-7.911,5.147v2.264c0,2.838,3.549,5.147,7.911,5.147
		c4.363,0,7.912-2.309,7.912-5.147V17.23C128.474,14.392,124.925,12.083,120.562,12.083z M120.562,12.602
		c4.076,0,7.393,2.076,7.393,4.628s-3.316,4.628-7.393,4.628c-4.076,0-7.392-2.076-7.392-4.628S116.486,12.602,120.562,12.602z"/>
</g>
<g id="Logo_rechts">
	<path display="none" d="M153.098,9.051c-0.014-0.239-0.051-0.479-0.146-0.708c-0.236-0.571-0.721-0.969-1.438-1.185
		c-2.434-0.73-6.724-1.834-6.767-1.846c-0.091-0.023-0.184,0.002-0.247,0.067l-20.388,20.112c-0.049,0.074-1.225,1.815-3.854,1.815
		c-0.893,0-1.859-0.205-2.871-0.61c-4.325-1.729-11.856-4.158-11.932-4.182c-0.083-0.027-0.175-0.01-0.244,0.046l-7.984,6.51
		c-0.011,0.009-0.015,0.022-0.024,0.033c-0.018,0.02-0.035,0.04-0.046,0.064c-0.008,0.017-0.009,0.035-0.013,0.053
		c-0.004,0.018-0.013,0.033-0.013,0.051v7.002c0,0.108,0.066,0.204,0.167,0.243l19.909,7.618c0.051,0.018,1.27,0.419,3.554,0.419
		c1.696,0,3.523-0.221,5.432-0.657c4.342-0.993,7.628-5.318,7.753-5.487l19.104-21.865c0.041-0.047,0.063-0.108,0.063-0.171V9.102
		C153.115,9.083,153.102,9.069,153.098,9.051z M105.431,23.053c1.034,0.335,7.774,2.531,11.764,4.126
		c1.074,0.43,2.105,0.647,3.065,0.647c2.921,0,4.235-1.967,4.254-2.007l20.248-19.966c0.766,0.198,4.431,1.151,6.603,1.803
		c0.561,0.168,0.933,0.465,1.106,0.884c0.083,0.201,0.114,0.417,0.118,0.634c0.001,0.047,0,0.094-0.003,0.141
		c-0.002,0.059-0.007,0.117-0.014,0.175c-0.005,0.048-0.01,0.097-0.018,0.145c-0.009,0.056-0.021,0.111-0.032,0.165
		c-0.018,0.084-0.037,0.164-0.059,0.241c-0.013,0.045-0.025,0.092-0.038,0.135c-0.016,0.049-0.032,0.093-0.048,0.138
		c-0.012,0.033-0.023,0.067-0.035,0.097c-0.015,0.04-0.03,0.078-0.044,0.113c-0.012,0.028-0.023,0.056-0.034,0.08
		c-0.012,0.026-0.023,0.055-0.033,0.076c-0.017,0.037-0.033,0.072-0.043,0.091l-21.226,23.063c-0.541,0.57-1.119,1.069-1.734,1.498
		c-1.845,1.286-4.021,1.936-6.494,1.936c-1.666,0-3.429-0.294-5.241-0.875c-0.089-0.028-0.192-0.063-0.305-0.1
		c-0.047-0.016-0.103-0.035-0.154-0.052c-0.075-0.025-0.147-0.05-0.23-0.078c-0.059-0.02-0.124-0.043-0.186-0.064
		c-0.08-0.028-0.161-0.056-0.247-0.086c-0.079-0.027-0.163-0.057-0.247-0.086c-0.08-0.028-0.161-0.057-0.246-0.086
		c-0.097-0.035-0.198-0.071-0.301-0.107c-0.079-0.028-0.159-0.056-0.241-0.085c-0.11-0.04-0.223-0.08-0.339-0.122
		c-0.08-0.029-0.162-0.058-0.244-0.088c-0.131-0.047-0.264-0.095-0.401-0.145c-0.072-0.026-0.146-0.053-0.219-0.079
		c-0.141-0.051-0.282-0.103-0.428-0.155c-0.088-0.032-0.178-0.064-0.267-0.097c-0.145-0.053-0.289-0.105-0.438-0.16
		c-0.078-0.028-0.159-0.058-0.239-0.087c-0.163-0.06-0.326-0.119-0.494-0.181c-0.042-0.015-0.085-0.031-0.127-0.046
		c-0.282-0.104-0.57-0.209-0.862-0.317c-0.441-0.162-0.892-0.328-1.35-0.497c-0.106-0.039-0.213-0.079-0.32-0.118
		c-0.167-0.062-0.333-0.123-0.501-0.186c-0.089-0.033-0.179-0.066-0.269-0.099c-0.198-0.074-0.397-0.147-0.597-0.221
		c-0.07-0.026-0.141-0.052-0.211-0.079c-4.351-1.613-8.77-3.274-10.124-3.783L105.431,23.053z M152.595,16.276l-19.052,21.807
		c-0.032,0.043-3.312,4.357-7.465,5.306c-1.871,0.429-3.659,0.646-5.316,0.646c-2.189,0-3.376-0.388-3.378-0.389l-19.732-7.55
		v-6.448c0.19,0.071,0.459,0.173,0.782,0.294c0.047,0.018,0.097,0.037,0.147,0.055c0.052,0.02,0.106,0.04,0.161,0.061
		c0.079,0.03,0.154,0.058,0.239,0.09c0.809,0.304,1.86,0.698,3.06,1.146c0.1,0.038,0.201,0.075,0.302,0.113
		c0.425,0.159,0.865,0.324,1.319,0.493c0.055,0.021,0.111,0.042,0.167,0.063c0.194,0.073,0.389,0.146,0.587,0.219
		c0.093,0.035,0.188,0.07,0.281,0.105c0.209,0.078,0.42,0.156,0.632,0.235c0.028,0.011,0.057,0.021,0.085,0.032
		c0.252,0.094,0.506,0.188,0.762,0.284c0.042,0.015,0.083,0.031,0.124,0.046c0.186,0.069,0.373,0.139,0.56,0.208
		c0.131,0.049,0.261,0.097,0.392,0.146c0.181,0.067,0.36,0.134,0.541,0.201c0.074,0.027,0.148,0.055,0.223,0.083
		c0.207,0.077,0.414,0.153,0.62,0.229c0.09,0.034,0.181,0.067,0.271,0.101c0.185,0.068,0.367,0.136,0.55,0.203
		c0.089,0.033,0.178,0.066,0.267,0.099c0.271,0.1,0.541,0.2,0.808,0.298c0.117,0.043,0.231,0.085,0.347,0.128
		c0.143,0.052,0.286,0.105,0.426,0.157c0.123,0.045,0.243,0.089,0.363,0.133c0.149,0.054,0.297,0.109,0.443,0.162
		c0.091,0.034,0.18,0.066,0.27,0.099c0.153,0.056,0.305,0.111,0.454,0.166c0.134,0.049,0.265,0.096,0.396,0.144
		c0.091,0.033,0.184,0.067,0.273,0.1c0.135,0.049,0.268,0.097,0.398,0.145c0.108,0.039,0.215,0.078,0.319,0.115
		c0.098,0.035,0.193,0.07,0.288,0.104c0.114,0.041,0.226,0.081,0.335,0.121c0.101,0.036,0.2,0.072,0.296,0.106
		c0.103,0.037,0.201,0.071,0.298,0.106c0.086,0.031,0.173,0.062,0.256,0.091c0.092,0.033,0.18,0.063,0.267,0.094
		c0.08,0.028,0.16,0.057,0.235,0.083c0.091,0.031,0.174,0.06,0.258,0.089c0.063,0.022,0.13,0.045,0.189,0.065
		c0.081,0.028,0.152,0.052,0.226,0.077c0.052,0.018,0.107,0.037,0.155,0.053c0.115,0.038,0.219,0.072,0.31,0.102
		c1.863,0.597,3.68,0.899,5.399,0.899c0,0,0,0,0.001,0c2.153,0,4.092-0.473,5.796-1.41c1.023-0.563,1.962-1.293,2.812-2.188
		l21.252-23.093V16.276z"/>
	<g>
		<g>
			<path fill="#FFFFFF" d="M42.644,70.463h1.184v5.148c0,0.896-0.102,1.607-0.305,2.135s-0.57,0.957-1.1,1.289
				c-0.531,0.33-1.227,0.494-2.086,0.494c-0.836,0-1.521-0.145-2.053-0.432c-0.533-0.289-0.912-0.705-1.141-1.25
				c-0.227-0.545-0.34-1.291-0.34-2.236v-5.148h1.184v5.139c0,0.775,0.072,1.344,0.217,1.711s0.391,0.648,0.742,0.848
				s0.779,0.299,1.287,0.299c0.867,0,1.486-0.197,1.855-0.59s0.555-1.148,0.555-2.268V70.463z"/>
			<path fill="#FFFFFF" d="M45.654,79.383v-6.471h0.99v0.918c0.471-0.709,1.154-1.064,2.047-1.064c0.389,0,0.746,0.07,1.07,0.211
				c0.326,0.141,0.57,0.324,0.73,0.551c0.162,0.229,0.275,0.498,0.34,0.809c0.041,0.205,0.061,0.561,0.061,1.066v3.98h-1.104v-3.932
				c0-0.447-0.041-0.779-0.125-1c-0.084-0.223-0.234-0.398-0.449-0.529c-0.215-0.133-0.469-0.199-0.756-0.199
				c-0.465,0-0.863,0.148-1.199,0.443c-0.334,0.297-0.502,0.857-0.502,1.688v3.529H45.654z"/>
			<path fill="#FFFFFF" d="M52.582,71.711v-1.248h1.102v1.248H52.582z M52.582,79.383v-6.471h1.102v6.471H52.582z"/>
			<path fill="#FFFFFF" d="M57.107,79.383l-2.439-6.471h1.18l1.379,3.875c0.152,0.418,0.291,0.852,0.418,1.305
				c0.098-0.344,0.232-0.752,0.408-1.23l1.441-3.949h1.125l-2.445,6.471H57.107z"/>
			<path fill="#FFFFFF" d="M62.957,74.176c0.346-0.334,0.77-0.502,1.273-0.502c0.557,0,1.01,0.211,1.359,0.631
				c0.227,0.271,0.365,0.678,0.414,1.219h-3.615C62.423,74.961,62.615,74.514,62.957,74.176z M65.314,78.305
				c-0.285,0.211-0.629,0.316-1.031,0.316c-0.541,0-0.992-0.189-1.355-0.564c-0.363-0.377-0.564-0.918-0.605-1.625h4.828
				c0.004-0.131,0.006-0.229,0.006-0.293c0-1.07-0.273-1.898-0.82-2.488c-0.549-0.588-1.254-0.885-2.117-0.885
				c-0.891,0-1.615,0.301-2.176,0.902c-0.559,0.6-0.84,1.445-0.84,2.533c0,1.053,0.277,1.869,0.83,2.453
				c0.553,0.582,1.303,0.875,2.248,0.875c0.75,0,1.365-0.184,1.848-0.551c0.482-0.363,0.813-0.879,0.99-1.541l-1.127-0.146
				C65.826,77.756,65.599,78.092,65.314,78.305z"/>
			<path fill="#FFFFFF" d="M69.591,79.383v-3.385c0-0.465,0.061-0.891,0.182-1.279c0.08-0.258,0.215-0.457,0.404-0.602
				c0.189-0.143,0.404-0.217,0.641-0.217c0.268,0,0.533,0.078,0.799,0.232l0.391-1.014c-0.383-0.236-0.758-0.354-1.129-0.354
				c-0.256,0-0.49,0.072-0.703,0.219c-0.213,0.148-0.447,0.451-0.697,0.91v-0.982h-0.99v6.471H69.591z"/>
			<path fill="#FFFFFF" d="M73.054,79.006c0.439,0.35,1.078,0.523,1.914,0.523c0.506,0,0.959-0.09,1.359-0.266
				c0.4-0.178,0.707-0.426,0.92-0.75c0.213-0.322,0.318-0.668,0.318-1.035c0-0.373-0.088-0.684-0.262-0.938
				c-0.174-0.252-0.414-0.445-0.721-0.576s-0.846-0.303-1.619-0.51c-0.535-0.145-0.855-0.238-0.965-0.279
				c-0.189-0.074-0.33-0.172-0.42-0.289c-0.088-0.113-0.133-0.242-0.133-0.381c0-0.225,0.107-0.418,0.322-0.582
				c0.213-0.166,0.572-0.25,1.074-0.25c0.426,0,0.754,0.094,0.988,0.279c0.23,0.186,0.373,0.445,0.42,0.775l1.072-0.146
				c-0.07-0.418-0.195-0.752-0.379-1.004c-0.18-0.248-0.463-0.447-0.846-0.594s-0.826-0.219-1.332-0.219
				c-0.336,0-0.652,0.045-0.945,0.131c-0.293,0.088-0.525,0.193-0.695,0.32c-0.227,0.164-0.406,0.367-0.537,0.613
				s-0.197,0.514-0.197,0.801c0,0.318,0.08,0.607,0.24,0.869s0.395,0.469,0.703,0.617s0.865,0.324,1.666,0.527
				c0.596,0.15,0.969,0.273,1.121,0.371c0.217,0.139,0.324,0.334,0.324,0.58c0,0.275-0.121,0.514-0.363,0.719
				s-0.615,0.307-1.115,0.307c-0.498,0-0.885-0.115-1.162-0.348c-0.277-0.23-0.445-0.564-0.506-0.998l-1.086,0.178
				C72.335,78.139,72.615,78.656,73.054,79.006z"/>
			<path fill="#FFFFFF" d="M78.88,71.711v-1.248h1.102v1.248H78.88z M78.88,79.383v-6.471h1.102v6.471H78.88z"/>
			<path fill="#FFFFFF" d="M84.031,78.402l0.146,0.967c-0.309,0.064-0.584,0.098-0.83,0.098c-0.396,0-0.705-0.064-0.924-0.189
				c-0.221-0.125-0.375-0.291-0.465-0.494c-0.088-0.207-0.133-0.637-0.133-1.293v-3.717h-0.811v-0.859h0.811v-1.6l1.104-0.658v2.258
				h1.102v0.859h-1.102v3.777c0,0.313,0.018,0.512,0.057,0.602s0.102,0.16,0.189,0.213s0.213,0.078,0.375,0.078
				C83.671,78.443,83.833,78.43,84.031,78.402z"/>
			<path fill="#FFFFFF" d="M85.06,81.879l-0.131-1.02c0.238,0.064,0.445,0.098,0.625,0.098c0.242,0,0.438-0.041,0.582-0.123
				c0.145-0.08,0.266-0.193,0.357-0.342c0.068-0.109,0.18-0.383,0.334-0.816c0.02-0.063,0.053-0.15,0.098-0.271l-2.449-6.492h1.178
				l1.34,3.713c0.174,0.473,0.33,0.967,0.469,1.486c0.125-0.473,0.277-0.949,0.451-1.428l1.379-3.771h1.094l-2.439,6.586
				c-0.264,0.711-0.469,1.199-0.615,1.467c-0.193,0.359-0.416,0.623-0.668,0.795c-0.252,0.166-0.551,0.25-0.898,0.25
				C85.554,82.01,85.318,81.965,85.06,81.879z"/>
			<path fill="#FFFFFF" d="M96.05,74.289c0.359-0.41,0.814-0.615,1.361-0.615c0.537,0,0.988,0.207,1.35,0.619
				c0.363,0.41,0.545,1.016,0.545,1.814c0,0.85-0.182,1.479-0.541,1.893c-0.361,0.414-0.813,0.621-1.354,0.621
				c-0.547,0-1.002-0.207-1.361-0.619s-0.541-1.029-0.541-1.859C95.509,75.316,95.691,74.697,96.05,74.289z M95.224,78.656
				c0.557,0.582,1.285,0.873,2.188,0.873c0.561,0,1.08-0.133,1.555-0.396c0.475-0.266,0.836-0.635,1.086-1.111
				c0.248-0.477,0.373-1.133,0.373-1.965c0-1.029-0.281-1.834-0.844-2.418c-0.563-0.582-1.285-0.873-2.17-0.873
				c-0.797,0-1.473,0.238-2.025,0.719c-0.664,0.576-0.996,1.465-0.996,2.662C94.39,77.24,94.669,78.078,95.224,78.656z"/>
			<path fill="#FFFFFF" d="M103.085,79.383v-5.611h1.25v-0.859h-1.266v-0.59c0-0.387,0.068-0.648,0.207-0.789
				s0.373-0.211,0.705-0.211c0.203,0,0.418,0.02,0.645,0.061l0.164-0.957c-0.373-0.072-0.713-0.109-1.021-0.109
				c-0.479,0-0.85,0.088-1.115,0.264c-0.266,0.174-0.449,0.404-0.555,0.686c-0.076,0.211-0.115,0.531-0.115,0.963v0.684h-0.973
				v0.859h0.973v5.611H103.085z"/>
			<path fill="#FFFFFF" d="M114.117,73.102c0.207-0.563,0.371-1.135,0.492-1.715c0.148,0.49,0.361,1.111,0.641,1.861l0.938,2.469
				h-3.051L114.117,73.102z M111.828,79.383l0.977-2.709h3.756l1.025,2.709h1.344l-3.648-8.92h-1.293l-3.412,8.92H111.828z"/>
			<path fill="#FFFFFF" d="M119.726,81.865v-8.953h1.006v0.842c0.236-0.33,0.502-0.576,0.799-0.74s0.658-0.248,1.08-0.248
				c0.553,0,1.041,0.143,1.463,0.426c0.424,0.285,0.742,0.686,0.957,1.205c0.217,0.518,0.324,1.086,0.324,1.701
				c0,0.664-0.119,1.26-0.357,1.789c-0.236,0.531-0.584,0.938-1.035,1.219c-0.455,0.281-0.932,0.424-1.432,0.424
				c-0.365,0-0.693-0.078-0.984-0.234s-0.529-0.35-0.717-0.59v3.16H119.726z M120.732,76.18c0,0.834,0.168,1.447,0.506,1.846
				c0.338,0.396,0.746,0.596,1.225,0.596c0.488,0,0.906-0.207,1.252-0.619c0.348-0.412,0.521-1.047,0.521-1.912
				c0-0.824-0.17-1.441-0.51-1.85c-0.338-0.41-0.744-0.615-1.215-0.615c-0.467,0-0.881,0.219-1.24,0.654
				C120.912,74.717,120.732,75.348,120.732,76.18z"/>
			<path fill="#FFFFFF" d="M128.199,74.279c0.359-0.436,0.773-0.654,1.238-0.654c0.473,0,0.879,0.205,1.217,0.615
				c0.34,0.408,0.51,1.025,0.51,1.85c0,0.865-0.176,1.5-0.521,1.912c-0.348,0.412-0.764,0.619-1.254,0.619
				c-0.477,0-0.885-0.199-1.223-0.596c-0.338-0.398-0.506-1.012-0.506-1.846C127.66,75.348,127.839,74.717,128.199,74.279z
				 M127.757,81.865v-3.16c0.186,0.24,0.426,0.434,0.715,0.59c0.293,0.156,0.621,0.234,0.986,0.234c0.5,0,0.977-0.143,1.432-0.424
				c0.451-0.281,0.799-0.688,1.035-1.219c0.236-0.529,0.357-1.125,0.357-1.789c0-0.615-0.107-1.184-0.322-1.701
				c-0.217-0.52-0.535-0.92-0.959-1.205c-0.422-0.283-0.91-0.426-1.463-0.426c-0.424,0-0.783,0.084-1.08,0.248
				s-0.564,0.41-0.799,0.74v-0.842h-1.006v8.953H127.757z"/>
			<path fill="#FFFFFF" d="M133.548,79.383v-8.92h1.104v8.92H133.548z"/>
			<path fill="#FFFFFF" d="M137.453,71.711v-1.248h-1.104v1.248H137.453z M137.453,79.383v-6.471h-1.104v6.471H137.453z"/>
			<path fill="#FFFFFF" d="M142.855,78.305c-0.285,0.211-0.629,0.316-1.031,0.316c-0.543,0-0.994-0.189-1.357-0.564
				c-0.363-0.377-0.563-0.918-0.604-1.625h4.826c0.004-0.131,0.006-0.229,0.006-0.293c0-1.07-0.273-1.898-0.82-2.488
				c-0.547-0.588-1.252-0.885-2.115-0.885c-0.891,0-1.617,0.301-2.176,0.902c-0.561,0.6-0.84,1.445-0.84,2.533
				c0,1.053,0.275,1.869,0.828,2.453c0.555,0.582,1.305,0.875,2.248,0.875c0.75,0,1.365-0.184,1.848-0.551
				c0.482-0.363,0.813-0.879,0.992-1.541l-1.127-0.146C143.365,77.756,143.138,78.092,142.855,78.305z M140.498,74.176
				c0.344-0.334,0.768-0.502,1.271-0.502c0.557,0,1.01,0.211,1.359,0.631c0.229,0.271,0.367,0.678,0.416,1.219h-3.617
				C139.964,74.961,140.154,74.514,140.498,74.176z"/>
			<path fill="#FFFFFF" d="M150.212,79.383v-0.822c-0.408,0.646-1.01,0.969-1.803,0.969c-0.514,0-0.984-0.143-1.416-0.426
				c-0.432-0.287-0.764-0.682-1-1.193c-0.238-0.508-0.355-1.094-0.355-1.756c0-0.648,0.107-1.232,0.32-1.758
				c0.215-0.527,0.535-0.93,0.963-1.211c0.428-0.279,0.906-0.42,1.436-0.42c0.387,0,0.732,0.084,1.035,0.248
				s0.549,0.379,0.738,0.643v-3.193h1.104v8.92H150.212z M146.757,76.15c0,0.828,0.174,1.447,0.525,1.855
				c0.348,0.41,0.762,0.615,1.236,0.615c0.479,0,0.889-0.195,1.223-0.588s0.502-0.988,0.502-1.793c0-0.883-0.17-1.533-0.512-1.945
				c-0.342-0.414-0.764-0.621-1.262-0.621c-0.488,0-0.896,0.199-1.223,0.596C146.921,74.668,146.757,75.293,146.757,76.15z"/>
			<path fill="#FFFFFF" d="M156.662,78.113c0.307,0.475,0.732,0.828,1.277,1.063c0.543,0.236,1.215,0.354,2.02,0.354
				c0.635,0,1.205-0.117,1.713-0.35c0.506-0.232,0.895-0.559,1.166-0.979c0.27-0.42,0.406-0.865,0.406-1.34
				c0-0.477-0.123-0.9-0.373-1.266c-0.248-0.367-0.633-0.668-1.152-0.908c-0.357-0.162-1.014-0.354-1.963-0.57
				s-1.537-0.428-1.764-0.635c-0.229-0.205-0.344-0.469-0.344-0.789c0-0.369,0.162-0.686,0.484-0.945
				c0.324-0.264,0.84-0.393,1.547-0.393c0.68,0,1.195,0.141,1.541,0.426c0.35,0.283,0.551,0.705,0.613,1.26l1.135-0.08
				c-0.021-0.523-0.166-0.99-0.436-1.404c-0.27-0.412-0.658-0.725-1.158-0.938c-0.502-0.213-1.082-0.318-1.74-0.318
				c-0.598,0-1.139,0.102-1.627,0.303c-0.488,0.205-0.859,0.504-1.113,0.895c-0.254,0.395-0.381,0.816-0.381,1.266
				c0,0.412,0.104,0.783,0.313,1.113c0.207,0.332,0.523,0.609,0.945,0.832c0.33,0.176,0.898,0.361,1.711,0.559
				s1.336,0.34,1.572,0.434c0.371,0.143,0.639,0.318,0.805,0.527c0.166,0.207,0.25,0.451,0.25,0.73c0,0.275-0.084,0.531-0.252,0.764
				c-0.166,0.232-0.422,0.418-0.764,0.551c-0.344,0.135-0.738,0.201-1.184,0.201c-0.506,0-0.957-0.09-1.361-0.266
				s-0.699-0.408-0.893-0.693c-0.189-0.287-0.313-0.654-0.365-1.102l-1.119,0.098C156.189,77.107,156.351,77.643,156.662,78.113z"/>
			<path fill="#FFFFFF" d="M168.41,78.227c-0.289,0.262-0.646,0.395-1.076,0.395c-0.533,0-0.967-0.197-1.301-0.59
				c-0.332-0.393-0.498-1.021-0.498-1.891c0-0.855,0.172-1.479,0.516-1.875c0.344-0.393,0.789-0.592,1.342-0.592
				c0.363,0,0.672,0.109,0.93,0.326s0.436,0.541,0.537,0.971l1.07-0.145c-0.125-0.658-0.41-1.166-0.855-1.523
				c-0.445-0.359-1.02-0.537-1.719-0.537c-0.555,0-1.068,0.131-1.539,0.393c-0.473,0.262-0.822,0.656-1.055,1.18
				c-0.23,0.523-0.346,1.137-0.346,1.834c0,1.08,0.268,1.91,0.805,2.49c0.535,0.576,1.242,0.867,2.125,0.867
				c0.703,0,1.297-0.209,1.781-0.629c0.482-0.42,0.783-1,0.9-1.74l-1.07-0.145C168.88,77.561,168.697,77.963,168.41,78.227z"/>
			<path fill="#FFFFFF" d="M172.07,71.711v-1.248h-1.102v1.248H172.07z M172.07,79.383v-6.471h-1.102v6.471H172.07z"/>
			<path fill="#FFFFFF" d="M175.117,74.176c0.344-0.334,0.768-0.502,1.27-0.502c0.559,0,1.012,0.211,1.361,0.631
				c0.229,0.271,0.367,0.678,0.416,1.219h-3.617C174.583,74.961,174.773,74.514,175.117,74.176z M177.474,78.305
				c-0.287,0.211-0.629,0.316-1.033,0.316c-0.541,0-0.992-0.189-1.355-0.564c-0.363-0.377-0.564-0.918-0.604-1.625h4.826
				c0.004-0.131,0.006-0.229,0.006-0.293c0-1.07-0.273-1.898-0.82-2.488c-0.547-0.588-1.254-0.885-2.115-0.885
				c-0.891,0-1.617,0.301-2.178,0.902c-0.559,0.6-0.838,1.445-0.838,2.533c0,1.053,0.275,1.869,0.828,2.453
				c0.555,0.582,1.305,0.875,2.248,0.875c0.748,0,1.365-0.184,1.848-0.551c0.482-0.363,0.813-0.879,0.992-1.541l-1.129-0.146
				C177.984,77.756,177.757,78.092,177.474,78.305z"/>
			<path fill="#FFFFFF" d="M180.664,79.383v-6.471h0.988v0.918c0.473-0.709,1.156-1.064,2.049-1.064c0.389,0,0.744,0.07,1.07,0.211
				s0.568,0.324,0.73,0.551c0.16,0.229,0.273,0.498,0.34,0.809c0.039,0.205,0.061,0.561,0.061,1.066v3.98h-1.104v-3.932
				c0-0.447-0.043-0.779-0.127-1c-0.084-0.223-0.234-0.398-0.449-0.529c-0.215-0.133-0.469-0.199-0.756-0.199
				c-0.463,0-0.861,0.148-1.197,0.443c-0.336,0.297-0.504,0.857-0.504,1.688v3.529H180.664z"/>
			<path fill="#FFFFFF" d="M191.806,77.016l1.07,0.145c-0.117,0.74-0.416,1.32-0.898,1.74c-0.484,0.42-1.08,0.629-1.783,0.629
				c-0.881,0-1.59-0.291-2.127-0.867c-0.535-0.58-0.803-1.41-0.803-2.49c0-0.697,0.115-1.311,0.348-1.834
				c0.229-0.523,0.582-0.918,1.053-1.18s0.984-0.393,1.539-0.393c0.701,0,1.273,0.178,1.721,0.537
				c0.443,0.357,0.729,0.865,0.855,1.523l-1.07,0.145c-0.102-0.43-0.281-0.754-0.537-0.971c-0.258-0.217-0.568-0.326-0.932-0.326
				c-0.551,0-0.998,0.199-1.342,0.592c-0.342,0.396-0.516,1.02-0.516,1.875c0,0.869,0.166,1.498,0.5,1.891
				c0.332,0.393,0.766,0.59,1.301,0.59c0.428,0,0.787-0.133,1.074-0.395C191.548,77.963,191.73,77.561,191.806,77.016z"/>
			<path fill="#FFFFFF" d="M195.199,74.176c0.344-0.334,0.768-0.502,1.271-0.502c0.557,0,1.012,0.211,1.359,0.631
				c0.23,0.271,0.367,0.678,0.416,1.219h-3.617C194.666,74.961,194.857,74.514,195.199,74.176z M197.556,78.305
				c-0.285,0.211-0.629,0.316-1.031,0.316c-0.541,0-0.994-0.189-1.357-0.564c-0.361-0.377-0.563-0.918-0.604-1.625h4.828
				c0.004-0.131,0.006-0.229,0.006-0.293c0-1.07-0.273-1.898-0.822-2.488c-0.547-0.588-1.252-0.885-2.113-0.885
				c-0.893,0-1.619,0.301-2.178,0.902c-0.561,0.6-0.84,1.445-0.84,2.533c0,1.053,0.275,1.869,0.83,2.453
				c0.553,0.582,1.303,0.875,2.248,0.875c0.748,0,1.363-0.184,1.846-0.551c0.482-0.363,0.814-0.879,0.992-1.541l-1.127-0.146
				C198.068,77.756,197.841,78.092,197.556,78.305z"/>
			<path fill="#FFFFFF" d="M201.15,79.006c0.438,0.35,1.076,0.523,1.912,0.523c0.506,0,0.959-0.09,1.359-0.266
				c0.4-0.178,0.707-0.426,0.92-0.75c0.213-0.322,0.318-0.668,0.318-1.035c0-0.373-0.088-0.684-0.262-0.938
				c-0.174-0.252-0.414-0.445-0.721-0.576c-0.305-0.131-0.846-0.303-1.619-0.51c-0.535-0.145-0.855-0.238-0.965-0.279
				c-0.189-0.074-0.33-0.172-0.42-0.289c-0.088-0.113-0.133-0.242-0.133-0.381c0-0.225,0.107-0.418,0.322-0.582
				c0.215-0.166,0.572-0.25,1.074-0.25c0.426,0,0.754,0.094,0.988,0.279c0.232,0.186,0.373,0.445,0.42,0.775l1.072-0.146
				c-0.07-0.418-0.195-0.752-0.379-1.004c-0.182-0.248-0.463-0.447-0.844-0.594c-0.385-0.146-0.828-0.219-1.334-0.219
				c-0.338,0-0.652,0.045-0.945,0.131c-0.293,0.088-0.525,0.193-0.695,0.32c-0.225,0.164-0.406,0.367-0.537,0.613
				c-0.133,0.246-0.197,0.514-0.197,0.801c0,0.318,0.08,0.607,0.24,0.869s0.395,0.469,0.703,0.617s0.863,0.324,1.666,0.527
				c0.594,0.15,0.969,0.273,1.119,0.371c0.217,0.139,0.326,0.334,0.326,0.58c0,0.275-0.121,0.514-0.363,0.719
				s-0.615,0.307-1.117,0.307c-0.496,0-0.883-0.115-1.158-0.348c-0.279-0.23-0.447-0.564-0.508-0.998l-1.086,0.178
				C200.429,78.139,200.708,78.656,201.15,79.006z"/>
		</g>
		<g>
			<path fill="#FFFFFF" d="M0,64.713V50.396h2.141v5.879h8.409v-5.879h2.141v14.316H10.55v-6.748H2.141v6.748H0z"/>
			<path fill="#FFFFFF" d="M15.929,59.527c0-1.921,0.603-3.344,1.81-4.268c1.008-0.769,2.236-1.152,3.686-1.152
				c1.611,0,2.928,0.467,3.95,1.4c1.022,0.935,1.534,2.226,1.534,3.873c0,1.334-0.227,2.384-0.679,3.148
				c-0.453,0.766-1.111,1.359-1.976,1.783c-0.864,0.423-1.808,0.635-2.83,0.635c-1.641,0-2.967-0.466-3.979-1.396
				C16.435,62.619,15.929,61.278,15.929,59.527z M17.97,59.527c0,1.328,0.327,2.322,0.982,2.982
				c0.655,0.661,1.479,0.992,2.472,0.992c0.985,0,1.806-0.332,2.46-0.996s0.982-1.677,0.982-3.037c0-1.283-0.33-2.255-0.988-2.916
				c-0.658-0.66-1.477-0.99-2.455-0.99c-0.993,0-1.817,0.328-2.472,0.986C18.297,57.206,17.97,58.199,17.97,59.527z"/>
			<path fill="#FFFFFF" d="M37.467,60.914l1.953,0.225c-0.213,1.191-0.76,2.123-1.639,2.797c-0.879,0.674-1.959,1.012-3.239,1.012
				c-1.604,0-2.893-0.465-3.868-1.393c-0.975-0.928-1.462-2.257-1.462-3.988c0-1.12,0.209-2.1,0.629-2.939s1.058-1.471,1.915-1.891
				s1.79-0.629,2.797-0.629c1.273,0,2.314,0.284,3.123,0.854c0.809,0.57,1.328,1.379,1.556,2.428l-1.931,0.264
				c-0.184-0.697-0.51-1.221-0.977-1.572c-0.467-0.352-1.032-0.527-1.694-0.527c-1.001,0-1.814,0.316-2.439,0.951
				c-0.625,0.635-0.938,1.64-0.938,3.014c0,1.393,0.302,2.405,0.905,3.037c0.603,0.631,1.391,0.947,2.362,0.947
				c0.779,0,1.431-0.212,1.953-0.635C36.996,62.443,37.327,61.793,37.467,60.914z"/>
			<path fill="#FFFFFF" d="M41.812,64.713V50.396h1.986v5.137c0.927-0.951,2.097-1.426,3.509-1.426c0.868,0,1.622,0.15,2.262,0.453
				s1.098,0.722,1.374,1.256c0.276,0.533,0.414,1.309,0.414,2.324v6.572h-1.986v-6.572c0-0.879-0.215-1.52-0.646-1.92
				c-0.431-0.4-1.039-0.6-1.826-0.6c-0.589,0-1.143,0.135-1.661,0.404c-0.519,0.271-0.888,0.637-1.109,1.1
				c-0.221,0.462-0.331,1.1-0.331,1.914v5.674H41.812z"/>
			<path fill="#FFFFFF" d="M54.011,61.617l1.964-0.273c0.11,0.696,0.417,1.23,0.921,1.602s1.208,0.557,2.113,0.557
				c0.912,0,1.589-0.165,2.03-0.494c0.441-0.328,0.662-0.714,0.662-1.156c0-0.397-0.195-0.71-0.585-0.938
				c-0.272-0.156-0.949-0.355-2.03-0.596c-1.457-0.326-2.466-0.607-3.029-0.846c-0.563-0.237-0.989-0.566-1.28-0.986
				c-0.291-0.42-0.436-0.883-0.436-1.391c0-0.463,0.12-0.891,0.358-1.285c0.239-0.394,0.564-0.721,0.977-0.98
				c0.309-0.202,0.73-0.373,1.264-0.514c0.533-0.14,1.105-0.209,1.716-0.209c0.92,0,1.727,0.117,2.422,0.352s1.208,0.551,1.54,0.951
				s0.559,0.937,0.684,1.607l-1.942,0.234c-0.088-0.534-0.344-0.951-0.767-1.25c-0.423-0.3-1.021-0.449-1.793-0.449
				c-0.912,0-1.563,0.133-1.953,0.4c-0.39,0.267-0.585,0.579-0.585,0.938c0,0.228,0.081,0.433,0.243,0.615
				c0.162,0.188,0.416,0.345,0.762,0.469c0.199,0.064,0.783,0.215,1.754,0.449c1.405,0.332,2.385,0.604,2.941,0.814
				c0.556,0.212,0.991,0.52,1.308,0.924c0.316,0.403,0.475,0.904,0.475,1.504c0,0.586-0.193,1.137-0.58,1.654
				c-0.386,0.518-0.943,0.918-1.671,1.201c-0.729,0.283-1.553,0.426-2.472,0.426c-1.523,0-2.683-0.28-3.481-0.84
				C54.741,63.547,54.232,62.717,54.011,61.617z"/>
			<path fill="#FFFFFF" d="M74.209,60.914l1.953,0.225c-0.213,1.191-0.76,2.123-1.639,2.797c-0.879,0.674-1.959,1.012-3.239,1.012
				c-1.604,0-2.893-0.465-3.868-1.393c-0.975-0.928-1.462-2.257-1.462-3.988c0-1.12,0.209-2.1,0.629-2.939s1.058-1.471,1.915-1.891
				s1.79-0.629,2.797-0.629c1.273,0,2.314,0.284,3.123,0.854c0.809,0.57,1.328,1.379,1.556,2.428l-1.931,0.264
				c-0.184-0.697-0.51-1.221-0.977-1.572c-0.467-0.352-1.032-0.527-1.694-0.527c-1.001,0-1.814,0.316-2.439,0.951
				c-0.625,0.635-0.938,1.64-0.938,3.014c0,1.393,0.302,2.405,0.905,3.037c0.603,0.631,1.391,0.947,2.362,0.947
				c0.779,0,1.431-0.212,1.953-0.635C73.738,62.443,74.069,61.793,74.209,60.914z"/>
			<path fill="#FFFFFF" d="M78.554,64.713V50.396h1.986v5.137c0.927-0.951,2.097-1.426,3.509-1.426c0.868,0,1.622,0.15,2.262,0.453
				s1.098,0.722,1.374,1.256c0.276,0.533,0.414,1.309,0.414,2.324v6.572h-1.986v-6.572c0-0.879-0.215-1.52-0.646-1.92
				c-0.431-0.4-1.039-0.6-1.826-0.6c-0.589,0-1.143,0.135-1.661,0.404c-0.519,0.271-0.888,0.637-1.109,1.1
				c-0.221,0.462-0.331,1.1-0.331,1.914v5.674H78.554z"/>
			<path fill="#FFFFFF" d="M99.19,64.713v-1.523c-0.913,1.172-2.152,1.758-3.719,1.758c-0.691,0-1.337-0.117-1.937-0.352
				s-1.044-0.529-1.335-0.885c-0.291-0.354-0.495-0.789-0.612-1.303c-0.081-0.346-0.121-0.893-0.121-1.641v-6.426h1.986v5.752
				c0,0.918,0.04,1.536,0.121,1.855c0.125,0.462,0.39,0.824,0.794,1.088c0.405,0.264,0.905,0.396,1.501,0.396
				s1.155-0.136,1.677-0.406c0.522-0.27,0.892-0.638,1.109-1.104c0.217-0.465,0.325-1.141,0.325-2.025v-5.557h1.986v10.371H99.19z"
				/>
			<path fill="#FFFFFF" d="M104.438,64.713V50.396h1.986v14.316H104.438z"/>
			<path fill="#FFFFFF" d="M118.026,61.373l2.052,0.225c-0.323,1.061-0.923,1.885-1.799,2.471c-0.875,0.586-1.993,0.879-3.354,0.879
				c-1.714,0-3.073-0.468-4.077-1.402c-1.004-0.934-1.506-2.244-1.506-3.93c0-1.745,0.508-3.1,1.523-4.063
				c1.015-0.964,2.332-1.445,3.95-1.445c1.567,0,2.848,0.472,3.841,1.416c0.993,0.943,1.489,2.271,1.489,3.984
				c0,0.104-0.004,0.26-0.011,0.469h-8.74c0.073,1.139,0.438,2.012,1.092,2.617c0.654,0.605,1.472,0.908,2.45,0.908
				c0.728,0,1.35-0.17,1.864-0.508C117.316,62.655,117.724,62.115,118.026,61.373z M111.504,58.531h6.543
				c-0.088-0.873-0.338-1.527-0.75-1.963c-0.633-0.678-1.453-1.016-2.461-1.016c-0.912,0-1.68,0.27-2.301,0.811
				C111.914,56.903,111.57,57.626,111.504,58.531z"/>
			<path fill="#FFFFFF" d="M129.81,57.74c0-2.377,0.721-4.237,2.162-5.582c1.443-1.344,3.305-2.016,5.584-2.016
				c1.494,0,2.84,0.315,4.039,0.947c1.199,0.631,2.113,1.512,2.742,2.641c0.629,1.13,0.943,2.411,0.943,3.844
				c0,1.451-0.33,2.75-0.992,3.896c-0.662,1.146-1.6,2.013-2.814,2.602c-1.213,0.59-2.523,0.885-3.928,0.885
				c-1.523,0-2.885-0.326-4.084-0.977c-1.199-0.651-2.107-1.54-2.725-2.666C130.119,60.188,129.81,58.996,129.81,57.74z
				 M132.017,57.77c0,1.725,0.523,3.084,1.572,4.076c1.049,0.993,2.363,1.49,3.945,1.49c1.611,0,2.938-0.502,3.979-1.504
				c1.041-1.003,1.561-2.426,1.561-4.268c0-1.166-0.223-2.184-0.666-3.053c-0.445-0.869-1.098-1.543-1.953-2.021
				c-0.857-0.479-1.82-0.717-2.887-0.717c-1.516,0-2.82,0.46-3.912,1.381C132.564,54.076,132.017,55.614,132.017,57.77z"/>
			<path fill="#FFFFFF" d="M147.58,61.617l1.965-0.273c0.109,0.696,0.418,1.23,0.922,1.602s1.207,0.557,2.113,0.557
				c0.912,0,1.588-0.165,2.029-0.494c0.441-0.328,0.662-0.714,0.662-1.156c0-0.397-0.195-0.71-0.584-0.938
				c-0.273-0.156-0.949-0.355-2.031-0.596c-1.457-0.326-2.467-0.607-3.029-0.846c-0.563-0.237-0.988-0.566-1.279-0.986
				s-0.436-0.883-0.436-1.391c0-0.463,0.119-0.891,0.357-1.285c0.24-0.394,0.564-0.721,0.977-0.98
				c0.311-0.202,0.73-0.373,1.264-0.514c0.533-0.14,1.105-0.209,1.717-0.209c0.92,0,1.727,0.117,2.422,0.352
				s1.209,0.551,1.539,0.951c0.332,0.4,0.559,0.937,0.684,1.607l-1.941,0.234c-0.088-0.534-0.344-0.951-0.768-1.25
				c-0.422-0.3-1.02-0.449-1.793-0.449c-0.912,0-1.563,0.133-1.953,0.4c-0.389,0.267-0.584,0.579-0.584,0.938
				c0,0.228,0.08,0.433,0.242,0.615c0.162,0.188,0.416,0.345,0.762,0.469c0.199,0.064,0.783,0.215,1.754,0.449
				c1.406,0.332,2.387,0.604,2.941,0.814c0.555,0.212,0.992,0.52,1.309,0.924c0.314,0.403,0.473,0.904,0.473,1.504
				c0,0.586-0.191,1.137-0.578,1.654s-0.943,0.918-1.672,1.201s-1.553,0.426-2.473,0.426c-1.521,0-2.684-0.28-3.48-0.84
				C148.31,63.547,147.8,62.717,147.58,61.617z"/>
			<path fill="#FFFFFF" d="M160.113,64.713V54.342h1.787v1.475c0.861-1.14,2.105-1.709,3.73-1.709c0.707,0,1.355,0.111,1.947,0.336
				s1.035,0.52,1.33,0.885c0.295,0.364,0.5,0.797,0.617,1.299c0.074,0.325,0.111,0.895,0.111,1.709v6.377h-1.986v-6.309
				c0-0.717-0.078-1.252-0.232-1.607c-0.154-0.354-0.428-0.638-0.822-0.85c-0.393-0.211-0.855-0.316-1.385-0.316
				c-0.846,0-1.576,0.237-2.189,0.713c-0.615,0.475-0.922,1.377-0.922,2.705v5.664H160.113z"/>
			<path fill="#FFFFFF" d="M180.753,63.434c-0.734,0.553-1.443,0.943-2.123,1.172c-0.682,0.228-1.41,0.342-2.191,0.342
				c-1.287,0-2.277-0.279-2.969-0.836s-1.037-1.268-1.037-2.133c0-0.508,0.131-0.973,0.393-1.393s0.604-0.756,1.025-1.01
				c0.424-0.254,0.9-0.446,1.43-0.576c0.391-0.092,0.979-0.18,1.766-0.264c1.604-0.17,2.785-0.371,3.543-0.605
				c0.006-0.241,0.01-0.395,0.01-0.459c0-0.717-0.188-1.221-0.563-1.514c-0.508-0.397-1.262-0.596-2.262-0.596
				c-0.934,0-1.625,0.145-2.068,0.434c-0.445,0.29-0.775,0.803-0.988,1.539l-1.943-0.234c0.178-0.736,0.469-1.33,0.873-1.783
				c0.404-0.452,0.988-0.801,1.754-1.045s1.652-0.365,2.66-0.365c1,0,1.813,0.104,2.438,0.313c0.627,0.208,1.086,0.47,1.381,0.785
				c0.293,0.316,0.5,0.715,0.617,1.197c0.066,0.299,0.1,0.84,0.1,1.621v2.344c0,1.634,0.043,2.667,0.127,3.1
				c0.084,0.434,0.252,0.849,0.502,1.246h-2.074C180.945,64.348,180.814,63.922,180.753,63.434z M180.589,59.508
				c-0.721,0.26-1.803,0.481-3.244,0.664c-0.818,0.104-1.395,0.221-1.732,0.352c-0.34,0.13-0.6,0.32-0.785,0.57
				c-0.184,0.251-0.275,0.529-0.275,0.836c0,0.469,0.201,0.859,0.602,1.172s0.988,0.469,1.76,0.469c0.766,0,1.445-0.148,2.041-0.445
				c0.598-0.296,1.035-0.701,1.314-1.215c0.213-0.397,0.32-0.983,0.32-1.758V59.508z"/>
			<path fill="#FFFFFF" d="M187.931,64.713h-1.842V50.396h1.986v5.107c0.838-0.932,1.908-1.396,3.211-1.396
				c0.721,0,1.402,0.128,2.047,0.385c0.645,0.258,1.174,0.619,1.59,1.084c0.414,0.466,0.74,1.027,0.977,1.686
				c0.234,0.657,0.352,1.36,0.352,2.109c0,1.777-0.496,3.15-1.488,4.121c-0.994,0.97-2.186,1.455-3.576,1.455
				c-1.383,0-2.469-0.512-3.256-1.533V64.713z M187.91,59.449c0,1.243,0.191,2.142,0.574,2.695c0.625,0.904,1.471,1.357,2.537,1.357
				c0.869,0,1.619-0.334,2.252-1.002c0.633-0.667,0.949-1.661,0.949-2.982c0-1.354-0.303-2.354-0.91-2.998s-1.342-0.967-2.201-0.967
				c-0.869,0-1.619,0.333-2.252,1C188.226,57.221,187.91,58.186,187.91,59.449z"/>
			<path fill="#FFFFFF" d="M199.148,64.713V54.342h1.787v1.572c0.457-0.736,0.877-1.221,1.264-1.455s0.811-0.352,1.273-0.352
				c0.67,0,1.352,0.188,2.043,0.566l-0.686,1.631c-0.484-0.254-0.971-0.381-1.455-0.381c-0.436,0-0.824,0.115-1.17,0.346
				c-0.346,0.231-0.592,0.553-0.74,0.963c-0.221,0.625-0.33,1.309-0.33,2.051v5.43H199.148z"/>
			<path fill="#FFFFFF" d="M215.21,64.713v-1.523c-0.912,1.172-2.15,1.758-3.719,1.758c-0.691,0-1.336-0.117-1.936-0.352
				s-1.045-0.529-1.336-0.885c-0.291-0.354-0.494-0.789-0.611-1.303c-0.082-0.346-0.123-0.893-0.123-1.641v-6.426h1.986v5.752
				c0,0.918,0.041,1.536,0.123,1.855c0.125,0.462,0.389,0.824,0.793,1.088s0.906,0.396,1.502,0.396s1.154-0.136,1.678-0.406
				c0.521-0.27,0.891-0.638,1.107-1.104c0.217-0.465,0.326-1.141,0.326-2.025v-5.557h1.986v10.371H215.21z M209.142,52.311v-2.002
				h2.074v2.002H209.142z M213.257,52.311v-2.002h2.076v2.002H213.257z"/>
			<path fill="#FFFFFF" d="M228.177,60.914l1.953,0.225c-0.213,1.191-0.76,2.123-1.639,2.797s-1.959,1.012-3.238,1.012
				c-1.604,0-2.895-0.465-3.869-1.393s-1.461-2.257-1.461-3.988c0-1.12,0.209-2.1,0.629-2.939c0.418-0.84,1.057-1.471,1.914-1.891
				s1.789-0.629,2.797-0.629c1.273,0,2.314,0.284,3.123,0.854c0.811,0.57,1.328,1.379,1.557,2.428l-1.932,0.264
				c-0.184-0.697-0.51-1.221-0.977-1.572s-1.031-0.527-1.693-0.527c-1,0-1.814,0.316-2.439,0.951s-0.938,1.64-0.938,3.014
				c0,1.393,0.301,2.405,0.904,3.037c0.604,0.631,1.391,0.947,2.361,0.947c0.781,0,1.432-0.212,1.953-0.635
				C227.707,62.443,228.037,61.793,228.177,60.914z"/>
			<path fill="#FFFFFF" d="M232.519,64.713V50.396h1.986v8.164l4.701-4.219h2.57l-4.48,3.848l4.934,6.523h-2.451l-3.873-5.303
				l-1.4,1.191v4.111H232.519z"/>
		</g>
		<path fill="#FFFFFF" d="M134.715,9.054l4.427-3.893l0.773-0.68l-14.953-4.07C124.953,0.409,123.25,0,121.07,0
			c-1.96,0-4.732,0.34-6.812,1.962c-4.6,3.586-24.674,18.582-24.876,18.733c0.004,0-1.634,1.71-1.516,3.209
			c0.012,0.151,0.041,0.294,0.087,0.43c0.014,0.039,0.025,0.077,0.042,0.114c0.05,0.118,0.122,0.228,0.2,0.334
			c0.038,0.05,0.069,0.102,0.113,0.149c0.082,0.09,0.185,0.172,0.289,0.253c0.06,0.047,0.11,0.097,0.177,0.141
			c0.18,0.118,0.381,0.227,0.615,0.325c0.318,0.134,0.605,0.253,0.878,0.367c0.063,0.026,0.125,0.052,0.186,0.077
			c0.252,0.105,0.489,0.204,0.703,0.292c0.041,0.017,0.076,0.031,0.116,0.047c0.169,0.07,0.326,0.134,0.472,0.194
			c0.065,0.026,0.131,0.053,0.191,0.078c0.146,0.06,0.284,0.116,0.406,0.166c0.058,0.023,0.107,0.043,0.159,0.064
			c0.07,0.028,0.137,0.055,0.199,0.08c0.056,0.022,0.112,0.045,0.161,0.064c0.077,0.031,0.147,0.059,0.21,0.083
			c0.043,0.017,0.081,0.031,0.117,0.045c0.03,0.012,0.059,0.023,0.084,0.033c0.029,0.011,0.059,0.022,0.083,0.032
			c0.045,0.017,0.085,0.032,0.116,0.043c0.002,0.001,0.004,0.001,0.007,0.002L118.71,7.404c0.069-0.051,1.539-1.105,3.912-1.105
			c0.652,0,1.318,0.082,1.978,0.243L134.715,9.054z"/>
		<ellipse fill="#E9530E" cx="120.562" cy="17.23" rx="7.651" ry="4.888"/>
		<path fill="#FFFFFF" d="M151.364,7.657c-2.172-0.652-5.837-1.605-6.603-1.803l-20.248,19.966c-0.02,0.041-1.333,2.007-4.254,2.007
			c-0.959,0-1.991-0.218-3.065-0.647c-3.989-1.595-10.729-3.791-11.764-4.126l-7.524,6.135c1.354,0.509,5.773,2.17,10.124,3.783
			c0.07,0.027,0.141,0.053,0.211,0.079c0.2,0.073,0.399,0.147,0.597,0.222c0.09,0.033,0.179,0.066,0.269,0.099
			c0.168,0.063,0.334,0.124,0.501,0.186c0.106,0.04,0.214,0.079,0.32,0.118c0.458,0.169,0.908,0.335,1.35,0.497
			c0.292,0.107,0.58,0.214,0.862,0.317c0.042,0.015,0.085,0.031,0.127,0.046c0.167,0.062,0.331,0.12,0.494,0.181
			c0.08,0.029,0.161,0.059,0.239,0.087c0.149,0.055,0.293,0.106,0.438,0.159c0.089,0.033,0.179,0.066,0.267,0.098
			c0.146,0.053,0.287,0.104,0.428,0.155c0.073,0.026,0.147,0.054,0.219,0.079c0.137,0.049,0.27,0.098,0.401,0.145
			c0.083,0.029,0.164,0.059,0.244,0.088c0.116,0.041,0.229,0.082,0.339,0.121c0.082,0.029,0.162,0.059,0.241,0.086
			c0.103,0.037,0.204,0.072,0.301,0.107c0.084,0.029,0.166,0.059,0.246,0.086c0.084,0.029,0.168,0.06,0.247,0.087
			c0.086,0.03,0.167,0.058,0.247,0.086c0.063,0.021,0.127,0.044,0.186,0.064c0.083,0.028,0.155,0.053,0.23,0.078
			c0.051,0.018,0.106,0.036,0.154,0.052c0.113,0.038,0.216,0.072,0.305,0.101c1.813,0.58,3.576,0.874,5.241,0.874
			c2.474,0,4.649-0.649,6.494-1.936c0.615-0.429,1.193-0.928,1.734-1.498l21.226-23.063c0.01-0.019,0.026-0.054,0.043-0.091
			c0.01-0.021,0.021-0.049,0.033-0.076c0.011-0.024,0.022-0.052,0.034-0.08c0.014-0.035,0.029-0.073,0.044-0.113
			c0.012-0.03,0.023-0.064,0.035-0.097c0.016-0.045,0.032-0.089,0.048-0.138c0.013-0.042,0.025-0.089,0.038-0.135
			c0.021-0.077,0.041-0.157,0.059-0.241c0.012-0.054,0.023-0.109,0.032-0.165c0.008-0.047,0.013-0.096,0.018-0.145
			c0.007-0.058,0.012-0.117,0.014-0.175c0.003-0.047,0.004-0.094,0.003-0.141c-0.004-0.216-0.035-0.433-0.118-0.634
			C152.296,8.122,151.924,7.825,151.364,7.657z"/>
	</g>
	<path display="none" opacity="0.25" d="M120.762,44.034c1.657,0,3.445-0.217,5.316-0.646c4.153-0.949,7.433-5.262,7.465-5.306
		l19.052-21.807v-5.179l-21.252,23.093c-0.85,0.896-1.788,1.626-2.812,2.188c-1.704,0.938-3.643,1.411-5.796,1.411
		c-0.001,0-0.001,0-0.001,0c-1.72,0-3.536-0.303-5.399-0.9c-0.091-0.029-0.195-0.063-0.31-0.102
		c-0.048-0.016-0.104-0.035-0.155-0.053c-0.073-0.024-0.145-0.049-0.226-0.077c-0.06-0.021-0.126-0.043-0.189-0.065
		c-0.084-0.029-0.167-0.058-0.258-0.089c-0.075-0.026-0.156-0.055-0.235-0.083c-0.087-0.031-0.175-0.062-0.267-0.094
		c-0.083-0.029-0.169-0.06-0.256-0.091c-0.098-0.035-0.196-0.069-0.298-0.106c-0.097-0.035-0.196-0.07-0.296-0.106
		c-0.11-0.04-0.222-0.08-0.335-0.121c-0.095-0.034-0.19-0.069-0.288-0.104c-0.104-0.038-0.211-0.076-0.319-0.115
		c-0.131-0.047-0.263-0.095-0.398-0.145c-0.09-0.033-0.182-0.066-0.273-0.1c-0.131-0.048-0.261-0.095-0.396-0.144
		c-0.148-0.054-0.301-0.11-0.454-0.166c-0.09-0.033-0.179-0.065-0.27-0.099c-0.146-0.053-0.294-0.108-0.443-0.162
		c-0.121-0.044-0.24-0.088-0.363-0.133c-0.14-0.052-0.284-0.104-0.426-0.157c-0.116-0.043-0.23-0.085-0.347-0.128
		c-0.267-0.098-0.536-0.198-0.808-0.298c-0.088-0.033-0.178-0.066-0.267-0.099c-0.183-0.067-0.366-0.135-0.55-0.203
		c-0.09-0.034-0.181-0.067-0.271-0.101c-0.207-0.076-0.413-0.153-0.62-0.229c-0.074-0.028-0.148-0.055-0.223-0.083
		c-0.181-0.067-0.36-0.134-0.541-0.201c-0.131-0.049-0.261-0.097-0.392-0.146c-0.187-0.069-0.374-0.139-0.56-0.208
		c-0.042-0.015-0.083-0.031-0.124-0.046c-0.255-0.095-0.509-0.189-0.762-0.284c-0.028-0.01-0.057-0.021-0.085-0.032
		c-0.212-0.079-0.423-0.157-0.632-0.235c-0.094-0.035-0.188-0.07-0.281-0.105c-0.198-0.074-0.393-0.146-0.587-0.219
		c-0.056-0.021-0.112-0.042-0.167-0.063c-0.454-0.169-0.894-0.333-1.319-0.493c-0.102-0.038-0.203-0.076-0.302-0.113
		c-1.199-0.449-2.25-0.843-3.06-1.146c-0.084-0.032-0.16-0.06-0.239-0.09c-0.055-0.021-0.109-0.041-0.161-0.061
		c-0.05-0.019-0.1-0.038-0.147-0.055c-0.323-0.121-0.592-0.223-0.782-0.294v6.448l19.732,7.551
		C117.386,43.646,118.573,44.034,120.762,44.034z"/>
</g>
</svg>