<?xml version="1.0" encoding="utf-8"?>
<!-- Generator: Adobe Illustrator 16.0.0, SVG Export Plug-In . SVG Version: 6.00 Build 0)  -->
<!DOCTYPE svg PUBLIC "-//W3C//DTD SVG 1.1//EN" "http://www.w3.org/Graphics/SVG/1.1/DTD/svg11.dtd">
<svg version="1.1"
	 id="TafelstellwerkLogo" xmlns:svg="http://www.w3.org/2000/svg" xmlns:dc="http://purl.org/dc/elements/1.1/" xmlns:cc="http://creativecommons.org/ns#" xmlns:rdf="http://www.w3.org/1999/02/22-rdf-syntax-ns#"
	 xmlns="http://www.w3.org/2000/svg" xmlns:xlink="http://www.w3.org/1999/xlink" x="0px" y="0px" width="947.262px"
	 height="304.734px" viewBox="0 0 947.262 304.734" enable-background="new 0 0 947.262 304.734" xml:space="preserve">
<g id="text2987" transform="scale(0.98787106,1.0122779)" display="none">
	<path id="path2990" display="inline" fill="#F5821F" d="M-46.101,370.088v-73.447h-21.528v-14.955h57.588v14.955h-21.467v73.447
		H-46.101z"/>
	<path id="path2992" display="inline" fill="#F5821F" d="M64.915,370.088h-15.92l-6.333-20.082H13.719l-5.97,20.082H-7.809
		l28.221-88.402H35.91L64.915,370.088z M37.96,335.113l-9.95-32.804l-9.829,32.804H37.96L37.96,335.113z"/>
	<path id="path2994" display="inline" fill="#F5821F" d="M72.754,370.088v-88.402h49.689v14.955H87.347v20.925h30.332v14.954H87.347
		v37.568H72.754L72.754,370.088z"/>
	<path id="path2996" display="inline" fill="#F5821F" d="M134.684,370.088v-88.402h53.789v14.955h-39.196v19.596h36.422v14.895
		h-36.422v24.06H189.8v14.894L134.684,370.088L134.684,370.088z"/>
	<path id="path2998" display="inline" fill="#F5821F" d="M202.584,370.088V282.41h14.593v72.784h36.422v14.894H202.584z"/>
	<path id="path3000" display="inline" fill="#F5821F" d="M-66.121,469.761l14.292-1.688c1.608,11.297,6.874,16.945,15.799,16.945
		c4.422,0,7.901-1.156,10.432-3.468c2.533-2.311,3.799-5.176,3.799-8.593c0-2.01-0.442-3.718-1.328-5.127
		c-0.885-1.407-2.23-2.561-4.039-3.467c-1.809-0.905-6.191-2.421-13.147-4.552c-6.231-1.89-10.794-3.94-13.688-6.151
		c-2.894-2.211-5.196-5.116-6.905-8.713c-1.709-3.597-2.563-7.468-2.563-11.608c0-4.825,1.095-9.166,3.286-13.027
		c2.192-3.859,5.217-6.772,9.075-8.742c3.859-1.97,8.623-2.955,14.292-2.955c8.522,0,15.176,2.311,19.96,6.934
		c4.785,4.623,7.316,11.236,7.598,19.838l-14.653,0.783c-0.644-4.743-2.03-8.059-4.161-9.949c-2.13-1.89-5.166-2.834-9.106-2.834
		c-3.94,0-6.975,0.825-9.107,2.473c-2.13,1.65-3.196,3.7-3.196,6.151c0,2.412,0.966,4.444,2.894,6.09
		c1.93,1.649,6.372,3.458,13.327,5.427c7.357,2.13,12.673,4.372,15.95,6.723c3.276,2.352,5.779,5.387,7.508,9.106
		c1.728,3.718,2.593,8.231,2.593,13.538c0,7.678-2.363,14.13-7.085,19.356c-4.724,5.228-12.111,7.839-22.161,7.839
		C-54.222,500.093-64.111,489.982-66.121,469.761L-66.121,469.761z"/>
	<path id="path3002" display="inline" fill="#F5821F" d="M21.438,498.525v-73.447H-0.09v-14.955h57.588v14.955H36.031v73.447H21.438
		z"/>
	<path id="path3004" display="inline" fill="#F5821F" d="M67.146,498.525v-88.402h53.789v14.955H81.739v19.596h36.422v14.895H81.739
		v24.06h40.523v14.894L67.146,498.525L67.146,498.525z"/>
	<path id="path3006" display="inline" fill="#F5821F" d="M135.046,498.525v-87.678h14.593v72.784h36.422v14.894H135.046z"/>
	<path id="path3008" display="inline" fill="#F5821F" d="M197.036,498.525v-87.678h14.593v72.784h36.422v14.894H197.036z"/>
	<path id="path3010" display="inline" fill="#F5821F" d="M268.855,498.525l-17.308-88.402h15.015l10.854,60.723l13.265-60.723
		h17.427l12.724,61.749l11.157-61.749h14.714l-17.608,88.402h-15.558l-14.472-66.091l-14.352,66.091H268.855z"/>
	<path id="path3012" display="inline" fill="#F5821F" d="M354.182,498.525v-88.402h53.789v14.955h-39.196v19.596h36.422v14.895
		h-36.422v24.06h40.523v14.894L354.182,498.525L354.182,498.525z"/>
	<path id="path3014" display="inline" fill="#F5821F" d="M421.72,498.525v-88.402h30.813c7.881,0,13.508,0.794,16.883,2.382
		c3.377,1.588,6.152,4.341,8.323,8.261s3.255,8.613,3.255,14.081c0,6.914-1.657,12.482-4.973,16.703
		c-3.317,4.222-8.029,6.875-14.14,7.96c3.136,2.252,5.728,4.714,7.778,7.387c2.05,2.673,4.846,7.468,8.383,14.382l8.804,17.246
		h-17.428l-10.613-19.236c-3.818-6.955-6.412-11.306-7.778-13.055c-1.365-1.749-2.812-2.955-4.342-3.62
		c-1.528-0.663-3.98-0.995-7.357-0.995h-3.015v36.904L421.72,498.525L421.72,498.525z M436.313,447.51h10.854
		c6.633,0,10.853-0.291,12.662-0.874s3.276-1.759,4.401-3.528c1.127-1.768,1.688-4.12,1.688-7.055c0-2.814-0.561-5.075-1.688-6.784
		c-1.125-1.709-2.652-2.884-4.583-3.528c-1.366-0.442-5.325-0.663-11.877-0.663h-11.457V447.51z"/>
	<path id="path3016" display="inline" fill="#F5821F" d="M494.927,498.525v-88.402h14.593v39.255l29.607-39.255h19.72
		l-27.318,34.432l28.765,53.97h-18.936l-19.961-41.489l-11.877,14.776v26.713H494.927z"/>
</g>
<g>
	<path fill="#FFFFFF" d="M355.649,274.283c0,1.748-0.272,3.295-0.817,4.643s-1.339,2.481-2.381,3.403s-2.321,1.623-3.836,2.104
		c-1.517,0.479-3.301,0.722-5.353,0.722h-2.598v9.935c0,0.16-0.053,0.305-0.156,0.434c-0.104,0.128-0.277,0.232-0.518,0.313
		s-0.563,0.146-0.963,0.192c-0.4,0.048-0.913,0.072-1.539,0.072c-0.609,0-1.118-0.024-1.527-0.072s-0.733-0.112-0.975-0.192
		c-0.24-0.08-0.408-0.185-0.505-0.313c-0.096-0.129-0.144-0.272-0.144-0.434v-27.998c0-0.755,0.196-1.319,0.589-1.696
		c0.393-0.376,0.91-0.564,1.551-0.564h7.336c0.737,0,1.439,0.027,2.104,0.084c0.665,0.058,1.463,0.178,2.394,0.36
		c0.931,0.185,1.872,0.525,2.826,1.021c0.954,0.497,1.769,1.127,2.441,1.89c0.674,0.762,1.187,1.65,1.54,2.67
		C355.473,271.874,355.649,273.017,355.649,274.283z M349.036,274.74c0-1.091-0.192-1.988-0.577-2.693s-0.858-1.228-1.419-1.563
		c-0.563-0.337-1.151-0.549-1.769-0.638c-0.617-0.088-1.255-0.133-1.912-0.133h-2.693v10.561h2.838c1.01,0,1.855-0.137,2.538-0.409
		c0.681-0.271,1.239-0.653,1.671-1.143c0.433-0.489,0.762-1.074,0.986-1.756C348.923,276.283,349.036,275.542,349.036,274.74z"/>
	<path fill="#FFFFFF" d="M381.098,284.193c0,1.828-0.241,3.496-0.722,5.004c-0.481,1.507-1.211,2.806-2.189,3.896
		c-0.978,1.09-2.205,1.933-3.68,2.524s-3.199,0.892-5.171,0.892c-1.909,0-3.568-0.266-4.979-0.794
		c-1.411-0.529-2.582-1.3-3.512-2.311c-0.93-1.01-1.62-2.253-2.069-3.729c-0.448-1.476-0.673-3.158-0.673-5.052
		c0-1.827,0.244-3.5,0.733-5.016c0.489-1.515,1.223-2.814,2.201-3.896c0.978-1.082,2.201-1.921,3.668-2.515
		c1.467-0.593,3.187-0.89,5.16-0.89c1.924,0,3.592,0.261,5.003,0.781c1.41,0.521,2.577,1.286,3.5,2.298
		c0.922,1.01,1.606,2.253,2.057,3.728C380.875,280.594,381.098,282.285,381.098,284.193z M374.869,284.434
		c0-1.06-0.084-2.033-0.252-2.923c-0.168-0.891-0.453-1.663-0.854-2.321c-0.401-0.657-0.934-1.17-1.6-1.539
		s-1.503-0.554-2.514-0.554c-0.897,0-1.684,0.165-2.356,0.493s-1.228,0.811-1.66,1.442c-0.433,0.634-0.758,1.396-0.974,2.285
		c-0.218,0.89-0.325,1.904-0.325,3.043c0,1.059,0.088,2.032,0.265,2.923c0.176,0.891,0.46,1.663,0.854,2.32
		c0.393,0.658,0.926,1.167,1.6,1.527s1.507,0.541,2.501,0.541c0.914,0,1.708-0.163,2.381-0.492c0.674-0.329,1.228-0.807,1.66-1.433
		c0.433-0.625,0.754-1.383,0.962-2.271C374.764,286.586,374.869,285.573,374.869,284.434z"/>
	<path fill="#FFFFFF" d="M399.668,275.679c0,0.577-0.017,1.051-0.048,1.419c-0.032,0.369-0.08,0.658-0.145,0.865
		c-0.063,0.209-0.147,0.354-0.252,0.434c-0.104,0.081-0.237,0.121-0.396,0.121c-0.128,0-0.273-0.028-0.434-0.085
		c-0.161-0.057-0.341-0.116-0.541-0.181c-0.201-0.063-0.421-0.124-0.662-0.181c-0.24-0.056-0.505-0.084-0.794-0.084
		c-0.336,0-0.673,0.068-1.01,0.204c-0.336,0.137-0.686,0.349-1.046,0.638c-0.36,0.288-0.737,0.673-1.13,1.154
		c-0.394,0.48-0.814,1.074-1.263,1.78v13.374c0,0.159-0.049,0.3-0.146,0.421c-0.096,0.12-0.261,0.221-0.493,0.3
		c-0.232,0.081-0.542,0.141-0.926,0.181s-0.874,0.062-1.467,0.062s-1.083-0.021-1.467-0.062c-0.385-0.04-0.694-0.1-0.927-0.181
		c-0.231-0.079-0.396-0.18-0.492-0.3c-0.097-0.121-0.146-0.262-0.146-0.421v-21.456c0-0.16,0.04-0.302,0.12-0.421
		c0.08-0.12,0.225-0.222,0.433-0.302s0.478-0.141,0.807-0.181s0.741-0.06,1.238-0.06c0.514,0,0.938,0.02,1.275,0.06
		s0.597,0.101,0.782,0.181c0.184,0.08,0.315,0.182,0.396,0.302c0.08,0.119,0.12,0.261,0.12,0.421v2.67
		c0.562-0.803,1.09-1.463,1.588-1.984c0.497-0.521,0.971-0.935,1.419-1.239c0.449-0.304,0.898-0.517,1.348-0.637
		c0.448-0.121,0.896-0.181,1.347-0.181c0.208,0,0.433,0.012,0.674,0.036c0.24,0.022,0.489,0.063,0.746,0.119
		c0.256,0.058,0.481,0.12,0.673,0.192c0.192,0.072,0.333,0.148,0.421,0.229c0.088,0.079,0.152,0.168,0.192,0.265
		c0.04,0.096,0.076,0.229,0.108,0.396c0.031,0.169,0.056,0.422,0.071,0.759S399.668,275.101,399.668,275.679z"/>
	<path fill="#FFFFFF" d="M416.096,293.021c0,0.706-0.044,1.247-0.132,1.624s-0.204,0.642-0.349,0.793
		c-0.146,0.153-0.357,0.289-0.638,0.409s-0.609,0.225-0.985,0.313c-0.377,0.088-0.786,0.156-1.228,0.205
		c-0.44,0.048-0.886,0.072-1.335,0.072c-1.203,0-2.245-0.153-3.127-0.457c-0.882-0.305-1.611-0.773-2.188-1.407
		c-0.578-0.634-1.002-1.432-1.275-2.394s-0.409-2.102-0.409-3.416v-10.992h-2.575c-0.305,0-0.537-0.188-0.696-0.565
		c-0.161-0.376-0.241-1.006-0.241-1.888c0-0.465,0.02-0.857,0.06-1.179s0.101-0.573,0.182-0.758c0.08-0.186,0.18-0.316,0.3-0.396
		c0.121-0.08,0.261-0.121,0.421-0.121h2.55v-4.786c0-0.159,0.044-0.305,0.132-0.434c0.088-0.128,0.249-0.236,0.481-0.324
		c0.231-0.088,0.545-0.151,0.938-0.191c0.394-0.04,0.878-0.062,1.455-0.062c0.593,0,1.086,0.021,1.479,0.062
		c0.393,0.04,0.701,0.104,0.926,0.191s0.385,0.196,0.481,0.324c0.096,0.129,0.145,0.272,0.145,0.434v4.786h4.667
		c0.16,0,0.301,0.041,0.421,0.121s0.22,0.212,0.301,0.396c0.08,0.185,0.141,0.438,0.181,0.758s0.06,0.714,0.06,1.179
		c0,0.882-0.081,1.512-0.24,1.888c-0.161,0.377-0.394,0.565-0.697,0.565h-4.69v10.078c0,1.171,0.184,2.049,0.553,2.634
		c0.369,0.586,1.026,0.879,1.973,0.879c0.32,0,0.608-0.027,0.865-0.085c0.257-0.056,0.485-0.12,0.687-0.192
		c0.2-0.071,0.369-0.136,0.505-0.191c0.136-0.057,0.261-0.084,0.373-0.084c0.096,0,0.188,0.028,0.276,0.084
		c0.088,0.057,0.156,0.169,0.204,0.337c0.049,0.168,0.093,0.396,0.133,0.686S416.096,292.573,416.096,293.021z"/>
	<path fill="#FFFFFF" d="M438.273,295.209c0,0.227-0.081,0.401-0.24,0.529c-0.16,0.129-0.413,0.221-0.758,0.277
		c-0.345,0.056-0.854,0.084-1.527,0.084c-0.722,0-1.247-0.028-1.575-0.084c-0.329-0.058-0.563-0.148-0.698-0.277
		c-0.136-0.128-0.205-0.304-0.205-0.529v-1.707c-0.882,0.946-1.888,1.685-3.019,2.214c-1.131,0.528-2.385,0.794-3.765,0.794
		c-1.139,0-2.185-0.149-3.139-0.445c-0.954-0.297-1.78-0.737-2.478-1.323c-0.698-0.585-1.239-1.311-1.624-2.177
		c-0.386-0.866-0.577-1.876-0.577-3.03c0-1.251,0.244-2.337,0.732-3.26c0.489-0.922,1.219-1.685,2.189-2.285
		c0.97-0.602,2.177-1.046,3.62-1.335c1.442-0.288,3.119-0.433,5.026-0.433h2.093v-1.3c0-0.674-0.068-1.263-0.204-1.769
		c-0.138-0.505-0.361-0.926-0.674-1.263c-0.313-0.337-0.73-0.585-1.25-0.745c-0.521-0.16-1.167-0.241-1.938-0.241
		c-1.01,0-1.912,0.112-2.706,0.337c-0.794,0.226-1.496,0.474-2.104,0.746c-0.61,0.272-1.119,0.521-1.527,0.745
		c-0.409,0.225-0.742,0.337-0.999,0.337c-0.177,0-0.333-0.056-0.469-0.168c-0.137-0.112-0.249-0.272-0.337-0.481
		c-0.088-0.208-0.156-0.465-0.205-0.77c-0.048-0.305-0.072-0.643-0.072-1.011c0-0.496,0.04-0.891,0.121-1.18
		c0.08-0.288,0.232-0.549,0.457-0.78c0.224-0.232,0.617-0.489,1.179-0.771c0.562-0.28,1.218-0.541,1.973-0.782
		c0.753-0.24,1.575-0.437,2.465-0.589c0.89-0.151,1.808-0.229,2.754-0.229c1.684,0,3.123,0.164,4.316,0.492
		c1.194,0.329,2.178,0.834,2.947,1.517c0.771,0.682,1.331,1.56,1.685,2.634c0.353,1.074,0.528,2.349,0.528,3.824v14.433H438.273z
		 M432.333,286.021h-2.31c-0.978,0-1.812,0.072-2.501,0.217c-0.689,0.146-1.251,0.361-1.684,0.649
		c-0.433,0.289-0.75,0.638-0.95,1.047c-0.201,0.408-0.301,0.878-0.301,1.406c0,0.897,0.285,1.604,0.854,2.116
		c0.569,0.515,1.359,0.771,2.369,0.771c0.851,0,1.631-0.216,2.346-0.649c0.713-0.433,1.438-1.065,2.177-1.899V286.021z"/>
	<path fill="#FFFFFF" d="M450.374,295.139c0,0.16-0.048,0.3-0.146,0.421c-0.097,0.12-0.261,0.221-0.493,0.3
		c-0.231,0.081-0.541,0.141-0.926,0.181s-0.874,0.062-1.467,0.062c-0.594,0-1.083-0.021-1.468-0.062s-0.694-0.1-0.927-0.181
		c-0.232-0.079-0.396-0.18-0.492-0.3c-0.097-0.121-0.146-0.261-0.146-0.421v-31.631c0-0.16,0.049-0.306,0.146-0.434
		c0.096-0.129,0.26-0.236,0.492-0.325c0.231-0.088,0.542-0.155,0.927-0.204s0.874-0.071,1.468-0.071
		c0.593,0,1.082,0.022,1.467,0.071s0.693,0.116,0.926,0.204c0.232,0.089,0.396,0.196,0.493,0.325
		c0.098,0.128,0.146,0.272,0.146,0.434V295.139z"/>
	<path fill="#FFFFFF" d="M480.489,265.503c0,0.467-0.018,0.84-0.049,1.119c-0.032,0.28-0.08,0.497-0.145,0.649
		c-0.065,0.152-0.137,0.257-0.217,0.313c-0.08,0.058-0.168,0.084-0.266,0.084c-0.111,0-0.235-0.026-0.372-0.084
		c-0.137-0.056-0.305-0.115-0.506-0.181c-0.201-0.063-0.438-0.124-0.709-0.181c-0.272-0.057-0.594-0.084-0.963-0.084
		c-0.433,0-0.806,0.067-1.118,0.205c-0.313,0.136-0.572,0.353-0.781,0.648c-0.208,0.297-0.36,0.682-0.457,1.154
		s-0.145,1.055-0.145,1.744v1.972h3.921c0.146,0,0.276,0.041,0.396,0.121s0.221,0.212,0.301,0.396
		c0.08,0.185,0.141,0.438,0.18,0.759c0.041,0.319,0.062,0.714,0.062,1.179c0,0.882-0.08,1.512-0.24,1.888
		c-0.16,0.377-0.393,0.565-0.697,0.565h-3.921v17.367c0,0.159-0.048,0.3-0.145,0.421c-0.098,0.12-0.258,0.221-0.481,0.3
		c-0.225,0.081-0.537,0.141-0.938,0.181c-0.401,0.04-0.892,0.062-1.468,0.062c-0.578,0-1.063-0.021-1.456-0.062
		c-0.393-0.04-0.706-0.1-0.938-0.181c-0.232-0.079-0.394-0.18-0.48-0.3c-0.088-0.121-0.133-0.262-0.133-0.421V277.77h-2.692
		c-0.306,0-0.533-0.188-0.687-0.565c-0.152-0.376-0.229-1.006-0.229-1.888c0-0.465,0.02-0.858,0.061-1.179
		c0.039-0.32,0.096-0.573,0.168-0.759c0.072-0.185,0.168-0.315,0.289-0.396c0.119-0.08,0.26-0.121,0.42-0.121h2.67v-1.804
		c0-1.459,0.146-2.738,0.435-3.837s0.74-2.013,1.358-2.742c0.617-0.729,1.402-1.278,2.356-1.647c0.954-0.367,2.081-0.553,3.38-0.553
		c0.625,0,1.219,0.052,1.779,0.156c0.562,0.104,1.002,0.217,1.323,0.337c0.32,0.12,0.536,0.231,0.648,0.337
		c0.112,0.104,0.205,0.256,0.277,0.457c0.071,0.2,0.123,0.456,0.155,0.77C480.471,264.65,480.489,265.038,480.489,265.503z"/>
	<path fill="#FFFFFF" d="M503.483,295.139c0,0.16-0.041,0.3-0.121,0.421c-0.079,0.12-0.221,0.221-0.42,0.3
		c-0.2,0.081-0.466,0.141-0.795,0.181c-0.328,0.04-0.74,0.062-1.237,0.062c-0.529,0-0.958-0.021-1.287-0.062
		c-0.328-0.04-0.589-0.1-0.781-0.181c-0.192-0.079-0.329-0.18-0.409-0.3c-0.08-0.121-0.12-0.261-0.12-0.421v-2.479
		c-1.188,1.282-2.393,2.245-3.62,2.886c-1.227,0.643-2.497,0.964-3.813,0.964c-1.477,0-2.714-0.241-3.716-0.723
		c-1.002-0.48-1.813-1.139-2.431-1.973c-0.616-0.834-1.059-1.8-1.322-2.898c-0.265-1.098-0.396-2.466-0.396-4.102v-13.133
		c0-0.16,0.044-0.302,0.132-0.421c0.088-0.12,0.248-0.222,0.481-0.302c0.231-0.08,0.545-0.141,0.938-0.181
		c0.394-0.04,0.877-0.06,1.455-0.06c0.594,0,1.082,0.02,1.467,0.06c0.386,0.04,0.693,0.101,0.927,0.181
		c0.232,0.08,0.396,0.182,0.494,0.302c0.096,0.119,0.144,0.261,0.144,0.421v12.123c0,1.122,0.072,1.979,0.217,2.572
		c0.145,0.595,0.364,1.104,0.661,1.527c0.297,0.426,0.674,0.754,1.131,0.986c0.457,0.231,0.99,0.349,1.601,0.349
		c0.77,0,1.543-0.28,2.319-0.842c0.778-0.562,1.607-1.379,2.49-2.453v-14.264c0-0.16,0.044-0.302,0.133-0.421
		c0.088-0.12,0.248-0.222,0.48-0.302c0.231-0.08,0.541-0.141,0.926-0.181s0.874-0.061,1.468-0.061c0.593,0,1.083,0.021,1.468,0.061
		c0.386,0.04,0.688,0.101,0.914,0.181c0.225,0.08,0.386,0.182,0.48,0.302c0.095,0.119,0.145,0.261,0.145,0.421L503.483,295.139
		L503.483,295.139z M491.673,266.442c0,1.122-0.213,1.904-0.638,2.345c-0.426,0.441-1.23,0.662-2.417,0.662
		c-1.203,0-2.014-0.213-2.431-0.638s-0.625-1.175-0.625-2.249c0-1.154,0.217-1.948,0.648-2.381c0.434-0.435,1.234-0.649,2.406-0.649
		c1.219,0,2.031,0.212,2.44,0.637C491.468,264.595,491.673,265.351,491.673,266.442z M501.078,266.442
		c0,1.122-0.212,1.904-0.638,2.345c-0.426,0.441-1.237,0.662-2.44,0.662c-1.188,0-1.988-0.213-2.405-0.638s-0.626-1.175-0.626-2.249
		c0-1.154,0.213-1.948,0.638-2.381c0.426-0.435,1.23-0.649,2.417-0.649c1.203,0,2.014,0.212,2.431,0.637
		C500.87,264.595,501.078,265.351,501.078,266.442z"/>
	<path fill="#FFFFFF" d="M523.351,275.679c0,0.577-0.017,1.051-0.048,1.419c-0.033,0.369-0.08,0.658-0.145,0.865
		c-0.064,0.209-0.148,0.354-0.252,0.434c-0.105,0.081-0.237,0.121-0.397,0.121c-0.128,0-0.272-0.028-0.433-0.085
		c-0.161-0.057-0.343-0.116-0.541-0.181c-0.201-0.063-0.422-0.124-0.662-0.181c-0.24-0.056-0.505-0.084-0.794-0.084
		c-0.337,0-0.673,0.068-1.012,0.204c-0.336,0.137-0.686,0.349-1.046,0.638c-0.359,0.288-0.736,0.673-1.13,1.154
		c-0.394,0.48-0.813,1.074-1.264,1.78v13.374c0,0.159-0.048,0.3-0.146,0.421c-0.096,0.12-0.26,0.221-0.491,0.3
		c-0.232,0.081-0.541,0.141-0.927,0.181c-0.385,0.04-0.875,0.062-1.468,0.062s-1.083-0.021-1.468-0.062s-0.693-0.1-0.926-0.181
		c-0.232-0.079-0.396-0.18-0.492-0.3c-0.097-0.121-0.146-0.262-0.146-0.421v-21.456c0-0.16,0.039-0.302,0.119-0.421
		c0.08-0.12,0.226-0.222,0.435-0.302c0.208-0.08,0.477-0.141,0.806-0.181s0.741-0.06,1.239-0.06c0.513,0,0.938,0.02,1.273,0.06
		s0.598,0.101,0.782,0.181c0.184,0.08,0.316,0.182,0.396,0.302c0.08,0.119,0.119,0.261,0.119,0.421v2.67
		c0.563-0.803,1.092-1.463,1.589-1.984c0.497-0.521,0.97-0.935,1.419-1.239c0.448-0.304,0.897-0.517,1.348-0.637
		c0.448-0.121,0.896-0.181,1.346-0.181c0.209,0,0.435,0.012,0.674,0.036c0.24,0.022,0.489,0.063,0.746,0.119
		c0.257,0.058,0.48,0.12,0.675,0.192c0.19,0.072,0.332,0.148,0.42,0.229s0.151,0.168,0.192,0.265
		c0.039,0.096,0.076,0.229,0.107,0.396c0.032,0.169,0.057,0.422,0.072,0.759C523.339,274.644,523.351,275.101,523.351,275.679z"/>
	<path fill="#FFFFFF" d="M559.289,267.429c0,0.465-0.021,0.861-0.062,1.189c-0.04,0.329-0.1,0.594-0.18,0.794
		c-0.081,0.2-0.182,0.35-0.301,0.444c-0.121,0.097-0.253,0.145-0.397,0.145h-7.794v25.089c0,0.16-0.052,0.305-0.156,0.434
		c-0.104,0.128-0.274,0.232-0.517,0.313c-0.242,0.081-0.565,0.146-0.974,0.192c-0.41,0.048-0.919,0.072-1.527,0.072
		c-0.61,0-1.119-0.024-1.527-0.072c-0.41-0.048-0.733-0.112-0.975-0.192s-0.413-0.185-0.519-0.313
		c-0.104-0.129-0.155-0.272-0.155-0.434v-25.089h-7.793c-0.16,0-0.297-0.048-0.409-0.145c-0.112-0.096-0.208-0.244-0.288-0.444
		c-0.081-0.2-0.141-0.465-0.182-0.794c-0.039-0.328-0.061-0.726-0.061-1.189c0-0.481,0.021-0.892,0.061-1.228
		c0.041-0.337,0.101-0.604,0.182-0.807c0.08-0.2,0.176-0.344,0.288-0.434c0.112-0.088,0.249-0.132,0.409-0.132h21.937
		c0.146,0,0.276,0.044,0.397,0.132c0.119,0.09,0.22,0.232,0.301,0.434c0.08,0.201,0.14,0.47,0.18,0.807
		C559.267,266.537,559.289,266.947,559.289,267.429z"/>
	<path fill="#FFFFFF" d="M577.16,295.209c0,0.227-0.08,0.401-0.24,0.529c-0.16,0.129-0.413,0.221-0.758,0.277
		c-0.346,0.056-0.854,0.084-1.527,0.084c-0.721,0-1.246-0.028-1.575-0.084c-0.329-0.058-0.562-0.148-0.698-0.277
		c-0.136-0.128-0.203-0.304-0.203-0.529v-1.707c-0.883,0.946-1.889,1.685-3.02,2.214c-1.131,0.528-2.385,0.794-3.764,0.794
		c-1.141,0-2.187-0.149-3.141-0.445c-0.953-0.297-1.779-0.737-2.478-1.323c-0.697-0.585-1.238-1.311-1.623-2.177
		s-0.578-1.876-0.578-3.03c0-1.251,0.244-2.337,0.734-3.26c0.487-0.922,1.218-1.685,2.188-2.285c0.971-0.602,2.178-1.046,3.62-1.335
		c1.443-0.288,3.119-0.433,5.027-0.433h2.092v-1.3c0-0.674-0.068-1.263-0.203-1.769c-0.137-0.505-0.361-0.926-0.674-1.263
		c-0.313-0.337-0.73-0.585-1.251-0.745c-0.521-0.16-1.167-0.241-1.938-0.241c-1.01,0-1.911,0.112-2.706,0.337
		c-0.794,0.226-1.494,0.474-2.104,0.746s-1.119,0.521-1.527,0.745s-0.741,0.337-0.998,0.337c-0.178,0-0.334-0.056-0.469-0.168
		c-0.137-0.112-0.25-0.272-0.338-0.481c-0.088-0.208-0.156-0.465-0.204-0.77s-0.072-0.643-0.072-1.011c0-0.496,0.04-0.891,0.12-1.18
		c0.08-0.288,0.232-0.549,0.457-0.78c0.226-0.232,0.617-0.489,1.181-0.771c0.561-0.28,1.218-0.541,1.972-0.782
		c0.753-0.24,1.575-0.437,2.466-0.589c0.89-0.151,1.808-0.229,2.754-0.229c1.685,0,3.123,0.164,4.317,0.492
		c1.193,0.329,2.177,0.834,2.945,1.517c0.77,0.682,1.331,1.56,1.685,2.634s0.529,2.349,0.529,3.824L577.16,295.209L577.16,295.209z
		 M571.218,286.021h-2.309c-0.979,0-1.813,0.072-2.502,0.217c-0.689,0.146-1.25,0.361-1.685,0.649
		c-0.433,0.289-0.75,0.638-0.949,1.047c-0.201,0.408-0.301,0.878-0.301,1.406c0,0.897,0.284,1.604,0.854,2.116
		c0.567,0.515,1.358,0.771,2.368,0.771c0.851,0,1.632-0.216,2.347-0.649c0.713-0.433,1.438-1.065,2.176-1.899V286.021
		L571.218,286.021z"/>
	<path fill="#FFFFFF" d="M595.874,265.503c0,0.467-0.018,0.84-0.048,1.119c-0.033,0.28-0.08,0.497-0.146,0.649
		c-0.064,0.152-0.137,0.257-0.217,0.313c-0.08,0.058-0.168,0.084-0.265,0.084c-0.112,0-0.236-0.026-0.372-0.084
		c-0.138-0.056-0.306-0.115-0.507-0.181c-0.2-0.063-0.438-0.124-0.709-0.181c-0.272-0.057-0.594-0.084-0.963-0.084
		c-0.433,0-0.806,0.067-1.117,0.205c-0.313,0.136-0.573,0.353-0.782,0.648c-0.208,0.297-0.36,0.682-0.457,1.154
		s-0.145,1.055-0.145,1.744v1.972h3.921c0.146,0,0.276,0.041,0.396,0.121s0.221,0.212,0.301,0.396
		c0.08,0.185,0.142,0.438,0.18,0.759c0.041,0.319,0.062,0.714,0.062,1.179c0,0.882-0.08,1.512-0.24,1.888
		c-0.16,0.377-0.393,0.565-0.697,0.565h-3.921v17.367c0,0.159-0.048,0.3-0.145,0.421c-0.097,0.12-0.257,0.221-0.481,0.3
		c-0.225,0.081-0.537,0.141-0.938,0.181c-0.401,0.04-0.892,0.062-1.467,0.062c-0.578,0-1.063-0.021-1.456-0.062
		c-0.394-0.04-0.706-0.1-0.938-0.181c-0.231-0.079-0.393-0.18-0.479-0.3c-0.088-0.121-0.134-0.262-0.134-0.421V277.77h-2.692
		c-0.306,0-0.533-0.188-0.687-0.565c-0.151-0.376-0.229-1.006-0.229-1.888c0-0.465,0.02-0.858,0.061-1.179
		c0.039-0.32,0.097-0.573,0.168-0.759c0.072-0.185,0.168-0.315,0.289-0.396c0.119-0.08,0.261-0.121,0.42-0.121h2.67v-1.804
		c0-1.459,0.146-2.738,0.435-3.837s0.741-2.013,1.358-2.742s1.402-1.278,2.356-1.647c0.954-0.367,2.081-0.553,3.38-0.553
		c0.625,0,1.219,0.052,1.779,0.156c0.562,0.104,1.002,0.217,1.324,0.337c0.319,0.12,0.535,0.231,0.647,0.337
		c0.112,0.104,0.205,0.256,0.277,0.457c0.072,0.2,0.123,0.456,0.156,0.77C595.856,264.65,595.874,265.038,595.874,265.503z"/>
	<path fill="#FFFFFF" d="M617.473,283.784c0,0.737-0.164,1.283-0.493,1.636c-0.329,0.354-0.781,0.529-1.357,0.529h-13.063
		c0,0.914,0.109,1.743,0.325,2.489c0.217,0.745,0.562,1.379,1.034,1.899c0.473,0.521,1.082,0.919,1.828,1.19
		c0.746,0.272,1.64,0.409,2.682,0.409c1.059,0,1.988-0.076,2.791-0.229c0.801-0.151,1.495-0.32,2.08-0.506
		c0.586-0.184,1.07-0.353,1.455-0.505s0.698-0.229,0.938-0.229c0.146,0,0.266,0.027,0.36,0.084c0.097,0.057,0.177,0.155,0.241,0.301
		c0.063,0.145,0.107,0.349,0.132,0.613s0.037,0.598,0.037,0.999c0,0.353-0.009,0.652-0.025,0.9c-0.016,0.249-0.039,0.461-0.07,0.638
		c-0.032,0.178-0.081,0.324-0.146,0.445c-0.063,0.12-0.147,0.236-0.253,0.35c-0.104,0.111-0.389,0.265-0.854,0.457
		c-0.466,0.191-1.06,0.381-1.779,0.564c-0.724,0.184-1.549,0.344-2.479,0.48c-0.93,0.136-1.924,0.205-2.981,0.205
		c-1.908,0-3.58-0.241-5.017-0.723c-1.435-0.48-2.633-1.211-3.596-2.188c-0.962-0.979-1.68-2.214-2.152-3.704
		c-0.472-1.491-0.71-3.239-0.71-5.244c0-1.907,0.249-3.628,0.745-5.159c0.498-1.531,1.22-2.83,2.166-3.896
		c0.945-1.066,2.097-1.881,3.451-2.441c1.355-0.561,2.883-0.842,4.582-0.842c1.796,0,3.332,0.265,4.606,0.794
		c1.273,0.529,2.32,1.263,3.14,2.2c0.817,0.938,1.418,2.049,1.803,3.332c0.386,1.282,0.578,2.678,0.578,4.186v0.964H617.473z
		 M611.604,282.053c0.048-1.699-0.293-3.034-1.021-4.006c-0.729-0.97-1.856-1.454-3.38-1.454c-0.771,0-1.439,0.145-2.009,0.433
		c-0.569,0.289-1.043,0.678-1.42,1.167s-0.665,1.065-0.864,1.731c-0.201,0.665-0.316,1.375-0.351,2.129H611.604L611.604,282.053z"/>
	<path fill="#FFFFFF" d="M628.513,295.139c0,0.16-0.048,0.3-0.145,0.421c-0.098,0.12-0.262,0.221-0.493,0.3
		c-0.232,0.081-0.541,0.141-0.926,0.181c-0.386,0.04-0.874,0.062-1.468,0.062s-1.083-0.021-1.468-0.062s-0.694-0.1-0.927-0.181
		c-0.232-0.079-0.396-0.18-0.492-0.3c-0.096-0.121-0.145-0.261-0.145-0.421v-31.631c0-0.16,0.049-0.306,0.145-0.434
		c0.096-0.129,0.26-0.236,0.492-0.325c0.231-0.088,0.542-0.155,0.927-0.204s0.874-0.071,1.468-0.071s1.082,0.022,1.468,0.071
		c0.385,0.049,0.692,0.116,0.926,0.204c0.231,0.089,0.396,0.196,0.493,0.325c0.097,0.128,0.145,0.272,0.145,0.434V295.139z"/>
	<path fill="#FFFFFF" d="M640.612,295.139c0,0.16-0.048,0.3-0.145,0.421c-0.096,0.12-0.26,0.221-0.492,0.3
		c-0.231,0.081-0.541,0.141-0.926,0.181s-0.875,0.062-1.468,0.062c-0.594,0-1.083-0.021-1.469-0.062
		c-0.385-0.04-0.692-0.1-0.926-0.181c-0.231-0.079-0.396-0.18-0.492-0.3c-0.097-0.121-0.145-0.261-0.145-0.421v-31.631
		c0-0.16,0.048-0.306,0.145-0.434c0.097-0.129,0.261-0.236,0.492-0.325c0.232-0.088,0.541-0.155,0.926-0.204
		c0.386-0.049,0.875-0.071,1.469-0.071c0.593,0,1.083,0.022,1.468,0.071s0.693,0.116,0.926,0.204
		c0.232,0.089,0.396,0.196,0.492,0.325c0.097,0.128,0.145,0.272,0.145,0.434V295.139z"/>
	<path fill="#FFFFFF" d="M668.346,284.193c0,1.828-0.24,3.496-0.722,5.004c-0.481,1.507-1.211,2.806-2.188,3.896
		c-0.979,1.091-2.205,1.933-3.681,2.524s-3.198,0.892-5.171,0.892c-1.909,0-3.568-0.266-4.979-0.794
		c-1.411-0.529-2.582-1.3-3.512-2.311c-0.931-1.01-1.62-2.253-2.069-3.729c-0.448-1.476-0.673-3.158-0.673-5.052
		c0-1.827,0.244-3.5,0.733-5.016c0.489-1.515,1.223-2.814,2.201-3.896c0.978-1.082,2.2-1.921,3.668-2.515
		c1.467-0.593,3.188-0.89,5.16-0.89c1.924,0,3.592,0.261,5.002,0.781c1.411,0.521,2.577,1.286,3.5,2.298
		c0.922,1.01,1.606,2.253,2.057,3.728C668.123,280.594,668.346,282.285,668.346,284.193z M662.117,284.434
		c0-1.06-0.084-2.033-0.252-2.923c-0.169-0.891-0.453-1.663-0.854-2.321c-0.401-0.657-0.935-1.17-1.6-1.539
		c-0.666-0.369-1.504-0.554-2.515-0.554c-0.897,0-1.684,0.165-2.356,0.493c-0.674,0.328-1.228,0.811-1.66,1.442
		c-0.434,0.634-0.758,1.396-0.975,2.285c-0.217,0.89-0.324,1.904-0.324,3.043c0,1.059,0.088,2.032,0.266,2.923
		c0.176,0.891,0.46,1.663,0.854,2.32c0.393,0.658,0.926,1.167,1.6,1.527s1.507,0.541,2.501,0.541c0.914,0,1.708-0.163,2.382-0.492
		s1.228-0.807,1.659-1.433c0.433-0.625,0.754-1.383,0.962-2.271C662.012,286.586,662.117,285.573,662.117,284.434z"/>
	<path fill="#FFFFFF" d="M692.471,275.174c0,0.77-0.088,1.339-0.264,1.707c-0.179,0.369-0.396,0.554-0.65,0.554h-2.524
		c0.354,0.385,0.604,0.821,0.758,1.312c0.152,0.49,0.229,0.998,0.229,1.527c0,1.25-0.209,2.361-0.625,3.331
		c-0.418,0.971-1.016,1.788-1.793,2.453c-0.776,0.666-1.715,1.171-2.813,1.516s-2.32,0.519-3.667,0.519
		c-0.69,0-1.348-0.086-1.974-0.254c-0.625-0.168-1.105-0.363-1.441-0.589c-0.193,0.208-0.365,0.457-0.519,0.745
		c-0.151,0.289-0.229,0.609-0.229,0.962c0,0.466,0.204,0.848,0.613,1.144c0.407,0.297,0.981,0.462,1.72,0.492l5.22,0.192
		c1.219,0.049,2.305,0.221,3.26,0.519c0.953,0.297,1.757,0.714,2.404,1.251c0.65,0.536,1.146,1.183,1.492,1.937
		c0.344,0.754,0.516,1.611,0.516,2.573c0,1.059-0.231,2.057-0.696,2.995c-0.466,0.938-1.162,1.751-2.093,2.44
		c-0.93,0.688-2.098,1.234-3.5,1.636c-1.403,0.4-3.043,0.602-4.919,0.602c-1.828,0-3.388-0.146-4.679-0.433
		c-1.291-0.289-2.35-0.689-3.175-1.203s-1.427-1.126-1.805-1.841c-0.377-0.714-0.564-1.494-0.564-2.345
		c0-0.528,0.067-1.035,0.204-1.516c0.137-0.481,0.337-0.942,0.602-1.383c0.266-0.441,0.59-0.862,0.976-1.265
		c0.385-0.399,0.825-0.784,1.321-1.153c-0.688-0.368-1.223-0.869-1.6-1.503c-0.377-0.635-0.564-1.327-0.564-2.081
		c0-0.946,0.218-1.809,0.648-2.586c0.434-0.777,0.994-1.479,1.685-2.104c-0.562-0.561-1.011-1.234-1.347-2.021
		c-0.338-0.785-0.506-1.765-0.506-2.936c0-1.251,0.221-2.369,0.662-3.354c0.439-0.986,1.054-1.819,1.84-2.501
		c0.785-0.683,1.724-1.203,2.814-1.563c1.09-0.361,2.293-0.542,3.606-0.542c0.674,0,1.319,0.041,1.938,0.121
		c0.617,0.08,1.189,0.192,1.72,0.336h6.807c0.273,0,0.494,0.177,0.662,0.529C692.387,273.746,692.471,274.34,692.471,275.174z
		 M686.123,297.374c0-0.722-0.289-1.273-0.865-1.659c-0.578-0.385-1.371-0.594-2.382-0.625l-4.307-0.12
		c-0.417,0.305-0.75,0.598-0.997,0.878c-0.249,0.279-0.449,0.549-0.603,0.806s-0.252,0.506-0.301,0.746
		c-0.048,0.24-0.072,0.489-0.072,0.745c0,0.802,0.405,1.411,1.215,1.828c0.811,0.417,1.952,0.626,3.429,0.626
		c0.914,0,1.684-0.094,2.309-0.276c0.625-0.185,1.131-0.43,1.516-0.734c0.386-0.304,0.658-0.646,0.818-1.021
		S686.123,297.791,686.123,297.374z M684.703,280.248c0-1.153-0.32-2.053-0.961-2.693c-0.643-0.642-1.549-0.962-2.72-0.962
		c-0.594,0-1.113,0.101-1.563,0.301c-0.449,0.201-0.822,0.474-1.119,0.817c-0.297,0.346-0.518,0.745-0.662,1.202
		c-0.144,0.457-0.216,0.936-0.216,1.433c0,1.09,0.321,1.952,0.962,2.585c0.642,0.634,1.531,0.95,2.67,0.95
		c0.609,0,1.139-0.097,1.588-0.288c0.449-0.192,0.822-0.457,1.119-0.794c0.295-0.337,0.521-0.727,0.672-1.167
		C684.626,281.191,684.703,280.73,684.703,280.248z"/>
	<path fill="#FFFFFF" d="M703.008,266.417c0,1.22-0.249,2.062-0.745,2.526c-0.498,0.465-1.42,0.697-2.768,0.697
		c-1.363,0-2.281-0.226-2.754-0.674c-0.474-0.448-0.709-1.26-0.709-2.431c0-1.218,0.243-2.063,0.731-2.537
		c0.49-0.473,1.416-0.71,2.779-0.71c1.348,0,2.262,0.229,2.742,0.687C702.764,264.433,703.008,265.247,703.008,266.417z
		 M702.55,295.139c0,0.16-0.047,0.3-0.143,0.421c-0.099,0.12-0.263,0.221-0.494,0.3c-0.232,0.081-0.541,0.141-0.926,0.181
		c-0.386,0.04-0.875,0.062-1.468,0.062c-0.594,0-1.084-0.021-1.469-0.062s-0.693-0.1-0.926-0.181c-0.232-0.079-0.396-0.18-0.492-0.3
		c-0.096-0.121-0.145-0.261-0.145-0.421v-21.408c0-0.16,0.049-0.301,0.145-0.421s0.26-0.226,0.492-0.313
		c0.231-0.088,0.541-0.156,0.926-0.205c0.385-0.048,0.875-0.07,1.469-0.07c0.593,0,1.082,0.022,1.468,0.07
		c0.385,0.049,0.692,0.117,0.926,0.205s0.396,0.192,0.494,0.313c0.096,0.12,0.143,0.261,0.143,0.421V295.139z"/>
	<path fill="#FFFFFF" d="M723.695,289.076c0,1.219-0.229,2.293-0.687,3.224s-1.104,1.708-1.938,2.333
		c-0.834,0.626-1.82,1.095-2.959,1.406c-1.14,0.313-2.373,0.471-3.703,0.471c-0.803,0-1.568-0.062-2.297-0.182
		c-0.73-0.12-1.384-0.272-1.961-0.457c-0.578-0.185-1.06-0.373-1.443-0.564c-0.384-0.192-0.666-0.373-0.842-0.541
		c-0.176-0.169-0.313-0.435-0.408-0.794c-0.098-0.361-0.145-0.895-0.145-1.601c0-0.465,0.016-0.838,0.047-1.118
		c0.032-0.279,0.08-0.506,0.145-0.674c0.065-0.168,0.146-0.28,0.24-0.337c0.098-0.056,0.217-0.084,0.361-0.084
		c0.176,0,0.438,0.102,0.78,0.301c0.347,0.2,0.773,0.422,1.287,0.661c0.514,0.241,1.111,0.466,1.793,0.675
		c0.683,0.207,1.455,0.313,2.32,0.313c0.545,0,1.031-0.056,1.455-0.168c0.426-0.112,0.795-0.272,1.106-0.481
		c0.313-0.208,0.55-0.473,0.709-0.794c0.16-0.319,0.24-0.688,0.24-1.105c0-0.48-0.147-0.895-0.445-1.238
		c-0.297-0.344-0.688-0.646-1.178-0.902c-0.49-0.256-1.043-0.496-1.66-0.722c-0.616-0.225-1.25-0.473-1.899-0.745
		c-0.648-0.271-1.283-0.586-1.9-0.938c-0.617-0.353-1.17-0.785-1.658-1.299c-0.489-0.514-0.883-1.132-1.18-1.854
		s-0.445-1.587-0.445-2.598c0-1.025,0.201-1.969,0.603-2.826c0.399-0.857,0.979-1.591,1.731-2.201
		c0.754-0.609,1.672-1.082,2.754-1.419s2.298-0.505,3.646-0.505c0.674,0,1.326,0.048,1.961,0.145
		c0.633,0.097,1.205,0.217,1.719,0.36c0.515,0.144,0.945,0.301,1.299,0.469c0.354,0.169,0.605,0.313,0.759,0.435
		c0.152,0.121,0.26,0.239,0.323,0.359c0.064,0.12,0.113,0.266,0.146,0.435c0.033,0.168,0.061,0.377,0.084,0.625
		c0.024,0.249,0.037,0.558,0.037,0.926c0,0.434-0.013,0.786-0.037,1.059c-0.023,0.272-0.064,0.489-0.119,0.649
		c-0.057,0.16-0.133,0.269-0.229,0.325c-0.097,0.056-0.209,0.084-0.339,0.084c-0.145,0-0.368-0.084-0.672-0.253
		c-0.307-0.168-0.686-0.35-1.143-0.541c-0.457-0.192-0.986-0.373-1.588-0.541c-0.603-0.169-1.287-0.253-2.058-0.253
		c-0.545,0-1.02,0.057-1.42,0.169c-0.399,0.111-0.729,0.271-0.985,0.479c-0.257,0.209-0.449,0.453-0.576,0.733
		c-0.129,0.281-0.193,0.582-0.193,0.901c0,0.497,0.152,0.914,0.457,1.251c0.305,0.338,0.705,0.635,1.203,0.891
		c0.496,0.257,1.063,0.497,1.695,0.722c0.632,0.226,1.274,0.469,1.924,0.733s1.291,0.573,1.926,0.927
		c0.633,0.353,1.197,0.785,1.695,1.299c0.496,0.513,0.897,1.127,1.203,1.84C723.541,287.252,723.695,288.099,723.695,289.076z"/>
	<path fill="#FFFFFF" d="M748.638,272.864c0.675,0,1.144,0.146,1.406,0.434c0.266,0.288,0.396,0.705,0.396,1.252v20.59
		c0,0.16-0.048,0.3-0.144,0.421c-0.098,0.12-0.258,0.221-0.481,0.3c-0.226,0.081-0.533,0.141-0.927,0.181
		c-0.393,0.04-0.877,0.062-1.455,0.062c-0.594,0-1.086-0.021-1.479-0.062c-0.396-0.04-0.703-0.1-0.928-0.181
		c-0.226-0.079-0.386-0.18-0.48-0.3c-0.096-0.121-0.145-0.261-0.145-0.421v-17.367h-9.646v10.078c0,1.171,0.185,2.049,0.553,2.634
		c0.369,0.586,1.025,0.879,1.974,0.879c0.32,0,0.608-0.028,0.865-0.085c0.256-0.056,0.483-0.12,0.686-0.192
		c0.202-0.071,0.369-0.136,0.506-0.191c0.135-0.057,0.26-0.084,0.373-0.084c0.096,0,0.188,0.027,0.275,0.084
		c0.088,0.057,0.155,0.169,0.205,0.337c0.049,0.168,0.092,0.396,0.133,0.686c0.039,0.289,0.061,0.658,0.061,1.106
		c0,0.706-0.041,1.239-0.121,1.6c-0.08,0.361-0.192,0.625-0.336,0.794c-0.145,0.168-0.36,0.313-0.649,0.434
		c-0.289,0.119-0.621,0.225-0.998,0.313s-0.785,0.156-1.228,0.205c-0.44,0.048-0.887,0.072-1.336,0.072
		c-1.2,0-2.244-0.153-3.127-0.457c-0.881-0.305-1.61-0.773-2.188-1.407c-0.578-0.634-1.004-1.432-1.275-2.394
		c-0.272-0.962-0.408-2.102-0.408-3.416v-10.992h-2.573c-0.306,0-0.537-0.188-0.697-0.565c-0.162-0.376-0.24-1.006-0.24-1.888
		c0-0.465,0.021-0.858,0.06-1.179c0.04-0.32,0.1-0.573,0.182-0.759c0.08-0.185,0.18-0.315,0.301-0.396
		c0.119-0.08,0.26-0.121,0.42-0.121h2.551v-4.786c0-0.16,0.043-0.305,0.132-0.434c0.088-0.128,0.248-0.236,0.481-0.324
		c0.232-0.088,0.545-0.152,0.938-0.192c0.393-0.04,0.877-0.061,1.455-0.061c0.594,0,1.086,0.021,1.479,0.061
		s0.701,0.104,0.928,0.192c0.224,0.088,0.386,0.196,0.48,0.324c0.096,0.129,0.145,0.272,0.145,0.434v4.786h13.877V272.864z
		 M750.924,266.417c0,1.22-0.25,2.062-0.746,2.526c-0.498,0.465-1.42,0.697-2.766,0.697c-1.363,0-2.281-0.226-2.754-0.674
		c-0.476-0.448-0.711-1.26-0.711-2.431c0-1.218,0.244-2.063,0.733-2.537c0.488-0.473,1.414-0.71,2.777-0.71
		c1.348,0,2.262,0.229,2.742,0.687C750.683,264.434,750.924,265.247,750.924,266.417z"/>
	<path fill="#FFFFFF" d="M776.469,295.161c0,0.161-0.045,0.302-0.133,0.421c-0.088,0.12-0.248,0.218-0.479,0.289
		c-0.232,0.072-0.55,0.128-0.951,0.168c-0.4,0.04-0.922,0.062-1.563,0.062c-0.658,0-1.19-0.018-1.6-0.048
		c-0.408-0.033-0.746-0.085-1.01-0.157c-0.267-0.071-0.47-0.172-0.613-0.3c-0.146-0.129-0.273-0.297-0.385-0.506l-7.146-11.306
		v11.354c0,0.16-0.049,0.3-0.145,0.421c-0.097,0.12-0.261,0.221-0.492,0.3c-0.232,0.081-0.541,0.141-0.928,0.182
		c-0.386,0.039-0.873,0.061-1.468,0.061c-0.594,0-1.082-0.021-1.467-0.061c-0.385-0.04-0.693-0.101-0.926-0.182
		c-0.232-0.079-0.396-0.18-0.494-0.3c-0.096-0.121-0.145-0.261-0.145-0.421v-31.631c0-0.16,0.049-0.306,0.145-0.434
		c0.098-0.129,0.262-0.235,0.494-0.324c0.231-0.089,0.541-0.156,0.926-0.204c0.385-0.05,0.873-0.072,1.467-0.072
		c0.595,0,1.082,0.022,1.468,0.072c0.387,0.048,0.694,0.115,0.928,0.204c0.231,0.089,0.396,0.195,0.492,0.324
		c0.096,0.128,0.145,0.272,0.145,0.434v18.834l6.351-8.539c0.129-0.192,0.272-0.361,0.434-0.505c0.16-0.146,0.373-0.258,0.637-0.337
		c0.267-0.08,0.594-0.142,0.986-0.182c0.392-0.04,0.895-0.06,1.504-0.06c0.594,0,1.094,0.02,1.504,0.06
		c0.408,0.04,0.736,0.102,0.986,0.182c0.248,0.08,0.42,0.181,0.516,0.301c0.098,0.12,0.146,0.269,0.146,0.443
		c0,0.241-0.062,0.498-0.181,0.771c-0.121,0.271-0.301,0.562-0.541,0.865l-6.278,7.12l7.266,11.232
		c0.191,0.32,0.332,0.599,0.42,0.829C776.424,294.758,776.469,294.97,776.469,295.161z"/>
</g>
<g>
	<path fill="#FFFFFF" d="M193.594,33.232C172.187,11.8,143.718,0,113.427,0C50.884,0,0,50.882,0,113.426
		s50.883,113.426,113.427,113.426c30.291,0,58.761-11.803,80.167-33.234c21.396-21.421,33.178-49.899,33.178-80.19
		C226.771,83.134,214.989,54.653,193.594,33.232z M187.15,187.182c-19.686,19.711-45.867,30.563-73.725,30.563
		c-57.522,0-104.321-46.798-104.321-104.319c0-57.522,46.798-104.32,104.321-104.32c27.857,0,54.039,10.854,73.725,30.563
		c19.679,19.7,30.516,45.896,30.516,73.758C217.666,141.285,206.829,167.48,187.15,187.182z"/>
</g>
<path fill="#FFFFFF" d="M113.425,17.774c-52.742,0-95.651,42.909-95.651,95.651c0,52.74,42.909,95.649,95.651,95.649
	c52.699,0,95.573-42.909,95.573-95.649C208.998,60.684,166.125,17.774,113.425,17.774z M151.956,169.968l0.096-107.227
	c0.006-0.064,0.006-0.131,0-0.195c0.014-0.593-0.455-1.083-1.047-1.099c-0.004,0-0.008,0-0.012,0c-0.039-0.002-0.079-0.002-0.118,0
	c-0.039-0.002-0.078-0.002-0.118,0c-0.097,0.026-0.189,0.065-0.274,0.117c0,0-0.114,0.077-0.117,0.079
	c-0.004,0-0.075,0.076-0.078,0.078c-0.027,0.012-0.054,0.024-0.079,0.039c-0.875,0.463-25.41,13.762-25.41,46.937
	c0,14.503,2.366,23.519,4.823,28.979c1.228,2.729,2.496,4.563,3.45,5.725c0.714,0.868,1.001,1.086,1.255,1.294l-0.186,33.97
	c-6.54,2.081-13.498,3.213-20.718,3.213c-4.256,0-8.416-0.408-12.46-1.154l-0.909-49.712l12.038-7.215
	c0.326-0.2,0.521-0.561,0.51-0.941l-0.118-60.388c-0.007-0.581-0.478-1.05-1.059-1.059l-6.234-0.04
	c-0.566,0.008-1.03,0.454-1.059,1.021l-1.882,42.819l-5.687,0.04l-0.784-42.82c-0.008-0.581-0.478-1.052-1.06-1.061h-5.606
	c-0.582,0.009-1.052,0.479-1.06,1.061l-0.745,42.82l-5.489,0.076L79.702,62.39c-0.029-0.566-0.492-1.014-1.06-1.021
	c-0.025,0-0.052,0-0.078,0l0,0l-5.804,0.04c-0.581,0.009-1.051,0.478-1.059,1.059l-0.117,60.388c-0.019,0.374,0.16,0.731,0.47,0.941
	l11.411,7.215l0.467,44.194c-23.068-11.029-39.042-34.574-39.042-61.779c0-37.768,30.743-68.491,68.531-68.491
	c37.741,0,68.449,30.726,68.452,68.491C181.877,136.891,170.005,157.629,151.956,169.968z"/>
<path fill="#FFFFFF" d="M282.495,93.775c-10.265,0-18.854,7.287-20.878,16.958h-36.789v8.75h36.789
	c2.023,9.671,10.613,16.958,20.878,16.958c11.763,0,21.333-9.57,21.333-21.333S294.258,93.775,282.495,93.775z M282.495,127.441
	c-6.813,0-12.333-5.521-12.333-12.333c0-6.812,5.521-12.333,12.333-12.333c6.812,0,12.333,5.521,12.333,12.333
	C294.828,121.92,289.305,127.441,282.495,127.441z"/>
<path fill="#FFFFFF" d="M282.495,182.465c-10.265,0-18.854,7.286-20.878,16.957h-30.489l-24.588-24.589l-6.188,6.188l27.137,27.135
	v0.018h34.128c2.023,9.671,10.613,16.958,20.878,16.958c11.763,0,21.333-9.57,21.333-21.333
	C303.828,192.035,294.258,182.465,282.495,182.465z M282.495,216.13c-6.813,0-12.333-5.521-12.333-12.333
	c0-6.812,5.521-12.333,12.333-12.333c6.812,0,12.333,5.521,12.333,12.333C294.828,210.61,289.305,216.13,282.495,216.13z"/>
<path fill="#FFFFFF" d="M282.495,1.525c-10.265,0-18.854,7.287-20.878,16.958h-34.102v0.027l-0.026-0.027l-27.439,27.44l6.188,6.187
	l24.877-24.877h30.503c2.023,9.671,10.613,16.958,20.878,16.958c11.763,0,21.333-9.57,21.333-21.333S294.258,1.525,282.495,1.525z
	 M282.495,35.191c-6.813,0-12.333-5.521-12.333-12.333c0-6.812,5.521-12.333,12.333-12.333c6.812,0,12.333,5.521,12.333,12.333
	C294.828,29.67,289.305,35.191,282.495,35.191z"/>
<g>
	<path fill="#FFFFFF" d="M335.175,5.151h56.503v13.33h-20.166v79.527H355.15V18.481h-19.976V5.151z"/>
	<path fill="#FFFFFF" d="M416.028,5.151h18.708l28.283,92.857h-16.995l-5.961-22.479h-31.454l-6.215,22.479h-15.979L416.028,5.151z
		 M424.97,20.377l-12.493,42.018h24.034L424.97,20.377z"/>
	<path fill="#FFFFFF" d="M472.406,5.151h44.645v12.809h-28.41v26.66h27.27v12.81h-27.27v40.58h-16.233V5.151z"/>
	<path fill="#FFFFFF" d="M530.748,5.151h46.482v12.809h-30.249v26.008h28.537v12.809h-28.537v28.36h31.645v12.873h-47.878V5.151
		L530.748,5.151z"/>
	<path fill="#FFFFFF" d="M594.544,5.151h16.233v79.2h29.426v13.657h-45.659V5.151z"/>
	<path fill="#FFFFFF" d="M384.765,132.333l-0.761,14.18c-2.96-1.264-5.75-2.223-8.371-2.875c-2.622-0.653-5.073-0.98-7.356-0.98
		c-4.271,0-7.546,0.938-9.829,2.812s-3.425,4.553-3.425,8.036c0,2.571,0.834,4.901,2.505,6.992s5.443,5.032,11.32,8.822
		c0.295,0.174,0.739,0.457,1.332,0.85c12.684,8.321,19.025,17.34,19.025,27.054c0,8.364-2.706,15.128-8.117,20.291
		c-5.412,5.162-12.493,7.743-21.244,7.743c-3.594,0-7.156-0.393-10.686-1.177c-3.531-0.783-6.776-1.873-9.734-3.268l1.205-14.313
		c3.17,1.83,6.288,3.202,9.354,4.117s6.099,1.372,9.101,1.372c4.27,0,7.65-1.078,10.146-3.233c2.494-2.156,3.742-5.043,3.742-8.658
		c0-5.663-4.609-11.437-13.825-17.317c-1.354-0.871-2.368-1.523-3.044-1.96c-6.807-4.444-11.458-8.55-13.951-12.318
		c-2.494-3.768-3.741-8.243-3.741-13.429c0-7.842,2.577-14.082,7.736-18.722c5.157-4.64,12.154-6.96,20.99-6.96
		c2.917,0,5.866,0.252,8.847,0.752C378.963,130.644,381.889,131.375,384.765,132.333z"/>
	<path fill="#FFFFFF" d="M397.132,130.895h56.503v13.33h-20.166v79.526h-16.361v-79.526h-19.976V130.895z"/>
	<path fill="#FFFFFF" d="M465.621,130.895h46.482v12.808h-30.249v26.008h28.537v12.81h-28.537v28.359h31.645v12.873h-47.878V130.895
		z"/>
	<path fill="#FFFFFF" d="M529.417,130.895h16.233v79.2h29.426v13.656h-45.659V130.895z"/>
	<path fill="#FFFFFF" d="M585.412,130.895h16.234v79.2h29.425v13.656h-45.658L585.412,130.895L585.412,130.895z"/>
	<path fill="#FFFFFF" d="M634.496,130.895h15.6l13.507,74.626l13.254-74.626h19.469l13.508,74.495l13.508-74.495h14.521
		l-18.327,92.856h-19.214l-14.27-77.763l-13.634,77.763h-19.215L634.496,130.895z"/>
	<path fill="#FFFFFF" d="M750.608,130.895h46.483v12.808h-30.25v26.008h28.537v12.81h-28.537v28.359h31.646v12.873h-47.879V130.895z
		"/>
	<path fill="#FFFFFF" d="M814.404,130.895h18.391c13.317,0,22.555,1.896,27.713,5.685c5.157,3.79,7.736,10.151,7.736,19.081
		c0,5.795-1.469,10.544-4.407,14.246c-2.938,3.703-7.261,6.208-12.969,7.515c2.832,0.522,5.073,1.71,6.723,3.563
		c1.648,1.853,3.298,5.349,4.946,10.488l10.527,32.28h-16.996l-8.308-27.838c-1.479-4.966-3.056-8.188-4.725-9.671
		c-1.671-1.479-4.26-2.222-7.77-2.222h-4.945v39.729h-15.918L814.404,130.895L814.404,130.895z M830.322,143.702v27.445h4.564
		c6.426,0,10.918-1.11,13.477-3.332c2.558-2.223,3.837-6.013,3.837-11.371c0-4.617-1.236-7.896-3.71-9.834s-6.88-2.908-13.223-2.908
		H830.322z"/>
	<path fill="#FFFFFF" d="M884.035,130.895h16.233v39.077l25.938-39.077h18.327l-29.996,43.324l32.723,49.532h-19.469L900.27,179.97
		v43.781h-16.234L884.035,130.895L884.035,130.895z"/>
</g>
</svg>