<?xml version="1.0" encoding="utf-8"?>
<!-- Generator: Adobe Illustrator 16.0.0, SVG Export Plug-In . SVG Version: 6.00 Build 0)  -->
<!DOCTYPE svg PUBLIC "-//W3C//DTD SVG 1.1//EN" "http://www.w3.org/Graphics/SVG/1.1/DTD/svg11.dtd">
<svg version="1.1"
	 id="TafelLogo" xmlns:svg="http://www.w3.org/2000/svg" xmlns:rdf="http://www.w3.org/1999/02/22-rdf-syntax-ns#" xmlns:cc="http://creativecommons.org/ns#" xmlns:dc="http://purl.org/dc/elements/1.1/"
	 xmlns="http://www.w3.org/2000/svg" xmlns:xlink="http://www.w3.org/1999/xlink" x="0px" y="0px" width="464.755px"
	 height="145.5px" viewBox="17.719 17.719 464.755 145.5" enable-background="new 17.719 17.719 464.755 145.5"
	 xml:space="preserve">
<path fill="#FFFFFF" d="M90.469,17.719c-40.17,0-72.75,32.58-72.75,72.75c0,40.168,32.58,72.75,72.75,72.75
	s72.688-32.582,72.688-72.75C163.156,50.299,130.639,17.719,90.469,17.719z M120.313,140.242l0.089-90.33
	c0,0-20.024,10.302-20.027,36.783c0,22.926,7.591,28.336,7.591,28.336l-0.168,30.836c-5.473,1.71-11.292,2.633-17.329,2.633
	c-3.663,0-7.24-0.354-10.715-1.002l-0.79-43.513l9.993-5.974l-0.076-48.138l-4.965-0.039l-1.539,34.946l-6.195,0.038l-0.605-34.984
	h-4.474l-0.597,34.946l-6.048,0.117l-1.693-35.063l-4.695,0.039l-0.115,48.138l9.475,5.974l0.414,39.95
	c-20.845-8.813-35.469-29.432-35.469-53.467c0-32.091,26.003-58.063,58.094-58.063c32.052,0,58.028,25.972,58.031,58.063
	C148.5,111.605,137.199,130.095,120.313,140.242z"/>
<g>
	<path fill="#FFFFFF" d="M186.394,24.454h7.557c6.202,0,10.791,1.447,13.768,4.34c2.976,2.894,4.464,7.35,4.464,13.369
		c0,5.753-1.563,10.147-4.689,13.182c-3.126,3.035-7.641,4.552-13.543,4.552h-7.557V24.454z M192.779,29.343v25.64h1.222
		c3.641,0,6.447-1.11,8.417-3.33s2.956-5.383,2.956-9.49c0-4.34-0.91-7.561-2.731-9.665s-4.619-3.155-8.393-3.155H192.779z"/>
	<path fill="#FFFFFF" d="M217.695,22.708h6.385v5.986h-6.385V22.708z M217.845,33.682h6.085v26.213h-6.085V33.682z"/>
	<path fill="#FFFFFF" d="M249.92,48.448h-14.641c0.116,2.461,0.756,4.311,1.92,5.55c1.164,1.239,2.818,1.858,4.963,1.858
		c1.098,0,2.178-0.158,3.242-0.474s2.112-0.79,3.143-1.422v4.764c-1.131,0.565-2.299,0.985-3.504,1.26
		c-1.206,0.274-2.474,0.412-3.804,0.412c-3.875,0-6.868-1.172-8.979-3.517c-2.112-2.344-3.167-5.678-3.167-10.001
		c0-4.24,0.981-7.59,2.943-10.051c1.961-2.46,4.639-3.691,8.031-3.691c2.977,0,5.371,1.189,7.183,3.567s2.719,5.562,2.719,9.552
		c0,0.333-0.004,0.686-0.012,1.06C249.949,47.687,249.936,48.065,249.92,48.448z M244.208,44.731v-0.474
		c0-2.195-0.358-3.866-1.073-5.013c-0.715-1.147-1.771-1.721-3.167-1.721c-1.463,0-2.59,0.59-3.379,1.771
		c-0.79,1.181-1.26,2.993-1.409,5.437H244.208z"/>
	<path fill="#FFFFFF" d="M265.808,24.454h22.223v5.088h-7.931v30.354h-6.435V29.542h-7.856V24.454z"/>
	<path fill="#FFFFFF" d="M306.087,44.357v10.326c0,1.098,0.025,2.058,0.074,2.881c0.051,0.823,0.125,1.601,0.225,2.332h-5.711
		l-0.374-3.267c-0.948,1.297-2.033,2.261-3.255,2.893s-2.606,0.948-4.153,0.948c-2.278,0-4.115-0.736-5.512-2.208
		c-1.397-1.471-2.095-3.413-2.095-5.824c0-2.893,1.051-5.096,3.155-6.609c2.103-1.513,5.158-2.27,9.166-2.27
		c0.499,0,0.944,0.004,1.334,0.012c0.391,0.009,0.777,0.013,1.16,0.013v-1.098c0-1.58-0.449-2.793-1.347-3.642
		c-0.898-0.848-2.187-1.272-3.866-1.272c-1.264,0-2.444,0.208-3.542,0.624c-1.097,0.416-2.128,1.04-3.093,1.871l-0.399-4.938
		c1.38-0.665,2.772-1.164,4.178-1.497c1.405-0.333,2.781-0.499,4.128-0.499c3.658,0,6.227,0.811,7.708,2.432
		C305.347,37.187,306.087,40.117,306.087,44.357z M300.102,47.276c-0.1,0-0.266-0.017-0.499-0.05c-0.698-0.066-1.264-0.1-1.696-0.1
		c-2.278,0-3.978,0.403-5.1,1.209c-1.123,0.807-1.684,2.025-1.684,3.654c0,1.247,0.345,2.22,1.035,2.918s1.65,1.047,2.881,1.047
		c1.746,0,3.026-0.561,3.841-1.684c0.814-1.122,1.222-2.889,1.222-5.3V47.276z"/>
	<path fill="#FFFFFF" d="M324.994,21.711v4.514c-0.582-0.116-1.022-0.195-1.322-0.237c-0.299-0.042-0.557-0.063-0.773-0.063
		c-1.196,0-2.041,0.299-2.531,0.898s-0.735,1.663-0.735,3.192v3.667h4.688v4.464h-4.688v21.749h-6.086V38.147h-4.39v-4.464h4.39
		v-4.24c0-2.843,0.586-4.921,1.759-6.235c1.172-1.313,3.021-1.97,5.549-1.97c0.698,0,1.393,0.038,2.083,0.112
		C323.625,21.424,324.311,21.545,324.994,21.711z"/>
	<path fill="#FFFFFF" d="M347.192,48.448h-14.641c0.116,2.461,0.757,4.311,1.921,5.55c1.163,1.239,2.818,1.858,4.963,1.858
		c1.098,0,2.178-0.158,3.242-0.474s2.111-0.79,3.143-1.422v4.764c-1.131,0.565-2.299,0.985-3.504,1.26
		c-1.206,0.274-2.474,0.412-3.804,0.412c-3.874,0-6.867-1.172-8.979-3.517c-2.112-2.344-3.168-5.678-3.168-10.001
		c0-4.24,0.98-7.59,2.943-10.051c1.962-2.46,4.639-3.691,8.031-3.691c2.976,0,5.37,1.189,7.183,3.567s2.719,5.562,2.719,9.552
		c0,0.333-0.004,0.686-0.013,1.06S347.208,48.065,347.192,48.448z M341.48,44.731v-0.474c0-2.195-0.357-3.866-1.072-5.013
		c-0.715-1.147-1.771-1.721-3.168-1.721c-1.463,0-2.59,0.59-3.379,1.771c-0.79,1.181-1.26,2.993-1.409,5.437H341.48z"/>
	<path fill="#FFFFFF" d="M352.405,21.685h6.136v38.21h-6.136V21.685z"/>
	<path fill="#FFFFFF" d="M385.252,41.813v18.083h-6.136v-16.86c0-1.629-0.287-2.818-0.86-3.567
		c-0.574-0.748-1.477-1.122-2.706-1.122c-1.298,0-2.328,0.557-3.093,1.671c-0.766,1.114-1.147,2.652-1.147,4.614v15.264h-6.136
		V39.768c0-1.18-0.021-2.261-0.063-3.242c-0.042-0.981-0.104-1.92-0.187-2.818h5.562c0.017,0.216,0.05,0.565,0.1,1.047
		c0.1,1.247,0.149,2.187,0.149,2.818c0.632-1.396,1.584-2.485,2.856-3.267c1.271-0.781,2.706-1.172,4.302-1.172
		c2.395,0,4.22,0.74,5.475,2.22C384.625,36.834,385.252,38.987,385.252,41.813z"/>
	<path fill="#FFFFFF" d="M404.507,22.708h6.385v5.986h-6.385V22.708z M404.657,33.682h6.086v26.213h-6.086V33.682z"/>
	<path fill="#FFFFFF" d="M437.455,41.813v18.083h-6.136v-16.86c0-1.629-0.287-2.818-0.86-3.567
		c-0.574-0.748-1.477-1.122-2.706-1.122c-1.298,0-2.328,0.557-3.093,1.671c-0.766,1.114-1.147,2.652-1.147,4.614v15.264h-6.136
		V39.768c0-1.18-0.021-2.261-0.063-3.242c-0.042-0.981-0.104-1.92-0.187-2.818h5.562c0.017,0.216,0.05,0.565,0.1,1.047
		c0.1,1.247,0.149,2.187,0.149,2.818c0.632-1.396,1.584-2.485,2.856-3.267c1.271-0.781,2.706-1.172,4.302-1.172
		c2.395,0,4.22,0.74,5.475,2.22C436.827,36.834,437.455,38.987,437.455,41.813z"/>
	<path fill="#FFFFFF" d="M186.394,72.454h7.408l12.097,27.486V72.454h5.562v35.442h-7.508L191.956,80.51v27.386h-5.562V72.454z"/>
	<path fill="#FFFFFF" d="M218.369,70.709h6.385v5.986h-6.385V70.709z M218.519,81.683h6.085v26.213h-6.085V81.683z"/>
	<path fill="#FFFFFF" d="M250.593,96.448h-14.641c0.116,2.461,0.756,4.312,1.92,5.55c1.164,1.238,2.818,1.858,4.963,1.858
		c1.098,0,2.178-0.158,3.242-0.475c1.064-0.315,2.112-0.789,3.143-1.422v4.765c-1.131,0.565-2.299,0.984-3.504,1.259
		c-1.206,0.274-2.474,0.412-3.804,0.412c-3.875,0-6.868-1.173-8.979-3.517c-2.112-2.345-3.167-5.679-3.167-10.002
		c0-4.24,0.981-7.59,2.943-10.051c1.961-2.46,4.639-3.691,8.031-3.691c2.977,0,5.371,1.189,7.183,3.567s2.719,5.562,2.719,9.553
		c0,0.332-0.004,0.686-0.012,1.06C250.622,95.687,250.609,96.066,250.593,96.448z M244.882,92.732v-0.475
		c0-2.194-0.358-3.866-1.073-5.013c-0.715-1.147-1.771-1.721-3.167-1.721c-1.463,0-2.59,0.59-3.379,1.771
		c-0.79,1.181-1.26,2.993-1.409,5.438H244.882z"/>
	<path fill="#FFFFFF" d="M270.272,69.686h6.061v38.21h-5.587c-0.1-0.914-0.162-1.658-0.187-2.232
		c-0.025-0.573-0.037-1.143-0.037-1.708c-0.848,1.563-1.833,2.706-2.956,3.429c-1.123,0.724-2.457,1.085-4.003,1.085
		c-2.91,0-5.15-1.172-6.722-3.517c-1.571-2.344-2.357-5.703-2.357-10.076c0-4.506,0.777-7.923,2.332-10.251
		c1.555-2.328,3.82-3.492,6.797-3.492c1.479,0,2.751,0.329,3.816,0.985c1.064,0.657,2.012,1.692,2.843,3.105V69.686z M270.272,93.48
		c0-2.395-0.416-4.252-1.247-5.575c-0.832-1.322-1.987-1.982-3.467-1.982c-1.53,0-2.686,0.752-3.467,2.257
		c-0.782,1.505-1.172,3.72-1.172,6.647c0,2.943,0.387,5.159,1.16,6.646c0.773,1.488,1.933,2.232,3.479,2.232
		c1.479,0,2.635-0.661,3.467-1.982c0.831-1.322,1.247-3.181,1.247-5.574V93.48z"/>
	<path fill="#FFFFFF" d="M302.372,96.448h-14.641c0.116,2.461,0.756,4.312,1.92,5.55c1.164,1.238,2.818,1.858,4.963,1.858
		c1.098,0,2.178-0.158,3.242-0.475c1.064-0.315,2.112-0.789,3.143-1.422v4.765c-1.131,0.565-2.299,0.984-3.504,1.259
		c-1.206,0.274-2.474,0.412-3.804,0.412c-3.875,0-6.868-1.173-8.979-3.517c-2.112-2.345-3.167-5.679-3.167-10.002
		c0-4.24,0.981-7.59,2.943-10.051c1.961-2.46,4.639-3.691,8.031-3.691c2.977,0,5.371,1.189,7.183,3.567s2.719,5.562,2.719,9.553
		c0,0.332-0.004,0.686-0.012,1.06C302.4,95.687,302.388,96.066,302.372,96.448z M296.66,92.732v-0.475
		c0-2.194-0.358-3.866-1.073-5.013c-0.715-1.147-1.771-1.721-3.167-1.721c-1.463,0-2.59,0.59-3.379,1.771
		c-0.79,1.181-1.26,2.993-1.409,5.438H296.66z"/>
	<path fill="#FFFFFF" d="M320.928,81.234v5.762c-0.084,0-0.309-0.025-0.674-0.075c-0.366-0.05-0.657-0.075-0.873-0.075
		c-1.896,0-3.305,0.607-4.228,1.821c-0.923,1.214-1.384,3.06-1.384,5.538v13.692h-6.086V87.768c0-1.18-0.021-2.261-0.063-3.242
		c-0.042-0.981-0.104-1.92-0.187-2.818l5.562-0.025c0,0.034,0.008,0.083,0.024,0.149c0.116,1.613,0.175,2.811,0.175,3.592v0.773
		c0.682-1.662,1.604-2.914,2.769-3.753c1.164-0.839,2.561-1.26,4.19-1.26h0.05C320.454,81.218,320.695,81.234,320.928,81.234z"/>
	<path fill="#FFFFFF" d="M338.288,82.156l-0.2,4.938c-0.897-0.432-1.787-0.752-2.668-0.96c-0.882-0.208-1.796-0.312-2.744-0.312
		c-1.23,0-2.179,0.229-2.843,0.686c-0.666,0.458-0.998,1.102-0.998,1.933c0,0.731,0.232,1.343,0.698,1.833
		c0.466,0.491,1.63,1.168,3.492,2.033c2.727,1.264,4.526,2.456,5.399,3.578c0.873,1.123,1.31,2.573,1.31,4.353
		c0,2.494-0.877,4.489-2.631,5.986c-1.755,1.496-4.104,2.244-7.047,2.244c-1.146,0-2.315-0.108-3.504-0.324s-2.349-0.54-3.479-0.973
		l0.2-5.362c1.08,0.648,2.215,1.144,3.404,1.484c1.188,0.341,2.34,0.511,3.454,0.511c1.297,0,2.308-0.245,3.03-0.735
		c0.724-0.49,1.085-1.176,1.085-2.058c0-1.098-1.222-2.211-3.666-3.342c-0.184-0.083-0.324-0.15-0.424-0.2
		c-2.645-1.23-4.461-2.452-5.45-3.666s-1.483-2.734-1.483-4.564c0-2.377,0.814-4.315,2.443-5.811
		c1.63-1.497,3.741-2.245,6.336-2.245c1.13,0,2.22,0.079,3.267,0.237C336.317,81.579,337.323,81.824,338.288,82.156z"/>
	<path fill="#FFFFFF" d="M363.578,92.357v10.326c0,1.098,0.024,2.058,0.074,2.881c0.051,0.823,0.125,1.601,0.225,2.332h-5.711
		l-0.374-3.268c-0.948,1.297-2.033,2.262-3.255,2.894c-1.223,0.632-2.606,0.947-4.153,0.947c-2.278,0-4.115-0.735-5.512-2.207
		s-2.096-3.412-2.096-5.823c0-2.894,1.052-5.097,3.155-6.61c2.104-1.513,5.159-2.269,9.166-2.269c0.499,0,0.943,0.004,1.335,0.012
		c0.39,0.009,0.776,0.013,1.159,0.013v-1.098c0-1.58-0.448-2.793-1.347-3.642c-0.897-0.848-2.187-1.272-3.866-1.272
		c-1.264,0-2.444,0.208-3.541,0.624c-1.098,0.416-2.129,1.04-3.093,1.871l-0.399-4.938c1.38-0.665,2.772-1.164,4.178-1.497
		s2.781-0.499,4.128-0.499c3.658,0,6.227,0.811,7.707,2.432C362.837,85.187,363.578,88.118,363.578,92.357z M357.591,95.276
		c-0.1,0-0.266-0.017-0.499-0.05c-0.698-0.066-1.264-0.1-1.695-0.1c-2.278,0-3.979,0.403-5.101,1.209
		c-1.123,0.807-1.684,2.024-1.684,3.654c0,1.247,0.345,2.22,1.035,2.918c0.689,0.698,1.649,1.048,2.881,1.048
		c1.745,0,3.025-0.562,3.841-1.684c0.814-1.123,1.222-2.89,1.222-5.301V95.276z"/>
	<path fill="#FFFFFF" d="M386.424,82.257L386.1,87.22c-0.665-0.382-1.389-0.677-2.17-0.886c-0.781-0.208-1.555-0.312-2.319-0.312
		c-2.095,0-3.708,0.723-4.839,2.17c-1.131,1.446-1.696,3.516-1.696,6.21c0,2.927,0.574,5.175,1.722,6.746s2.784,2.357,4.913,2.357
		c0.814,0,1.63-0.108,2.444-0.324s1.604-0.532,2.369-0.948l0.25,4.988c-1.064,0.399-2.142,0.694-3.23,0.886
		s-2.224,0.287-3.404,0.287c-3.525,0-6.322-1.218-8.393-3.654c-2.07-2.436-3.105-5.707-3.105-9.814c0-4.356,1.061-7.744,3.18-10.164
		c2.12-2.419,5.076-3.629,8.867-3.629c0.881,0,1.804,0.096,2.769,0.287C384.42,81.612,385.41,81.891,386.424,82.257z"/>
	<path fill="#FFFFFF" d="M390.689,69.686h6.136v14.965c0.781-1.197,1.729-2.083,2.843-2.656c1.114-0.573,2.428-0.86,3.941-0.86
		c2.277,0,4.04,0.752,5.287,2.257s1.871,3.646,1.871,6.422v18.083h-6.136v-16.86c0-1.629-0.287-2.818-0.86-3.567
		c-0.574-0.748-1.477-1.122-2.706-1.122c-1.298,0-2.328,0.557-3.093,1.671c-0.766,1.114-1.147,2.652-1.147,4.615v15.264h-6.136
		V69.686z"/>
	<path fill="#FFFFFF" d="M431.094,82.156l-0.2,4.938c-0.897-0.432-1.787-0.752-2.668-0.96c-0.882-0.208-1.796-0.312-2.744-0.312
		c-1.23,0-2.179,0.229-2.843,0.686c-0.666,0.458-0.998,1.102-0.998,1.933c0,0.731,0.232,1.343,0.698,1.833
		c0.466,0.491,1.63,1.168,3.492,2.033c2.727,1.264,4.526,2.456,5.399,3.578c0.873,1.123,1.31,2.573,1.31,4.353
		c0,2.494-0.877,4.489-2.631,5.986c-1.755,1.496-4.104,2.244-7.047,2.244c-1.146,0-2.315-0.108-3.504-0.324s-2.349-0.54-3.479-0.973
		l0.2-5.362c1.08,0.648,2.215,1.144,3.404,1.484c1.188,0.341,2.34,0.511,3.454,0.511c1.297,0,2.308-0.245,3.03-0.735
		c0.724-0.49,1.085-1.176,1.085-2.058c0-1.098-1.222-2.211-3.666-3.342c-0.184-0.083-0.324-0.15-0.424-0.2
		c-2.645-1.23-4.461-2.452-5.45-3.666s-1.483-2.734-1.483-4.564c0-2.377,0.814-4.315,2.443-5.811
		c1.63-1.497,3.741-2.245,6.336-2.245c1.13,0,2.22,0.079,3.267,0.237C429.124,81.579,430.129,81.824,431.094,82.156z"/>
	<path fill="#FFFFFF" d="M457.083,96.448h-14.641c0.116,2.461,0.757,4.312,1.921,5.55c1.163,1.238,2.818,1.858,4.963,1.858
		c1.098,0,2.178-0.158,3.242-0.475c1.064-0.315,2.111-0.789,3.143-1.422v4.765c-1.131,0.565-2.299,0.984-3.504,1.259
		c-1.206,0.274-2.474,0.412-3.804,0.412c-3.874,0-6.867-1.173-8.979-3.517c-2.112-2.345-3.168-5.679-3.168-10.002
		c0-4.24,0.98-7.59,2.943-10.051c1.962-2.46,4.639-3.691,8.031-3.691c2.976,0,5.37,1.189,7.183,3.567s2.719,5.562,2.719,9.553
		c0,0.332-0.004,0.686-0.013,1.06S457.1,96.066,457.083,96.448z M451.372,92.732v-0.475c0-2.194-0.357-3.866-1.072-5.013
		c-0.715-1.147-1.771-1.721-3.168-1.721c-1.463,0-2.59,0.59-3.379,1.771c-0.79,1.181-1.26,2.993-1.409,5.438H451.372z"/>
	<path fill="#FFFFFF" d="M482.474,89.814v18.083h-6.136v-16.86c0-1.629-0.287-2.818-0.86-3.567
		c-0.574-0.748-1.477-1.122-2.706-1.122c-1.298,0-2.328,0.557-3.093,1.671c-0.766,1.114-1.147,2.652-1.147,4.615v15.264h-6.136
		V87.768c0-1.18-0.021-2.261-0.063-3.242c-0.042-0.981-0.104-1.92-0.187-2.818h5.562c0.017,0.216,0.05,0.565,0.1,1.047
		c0.1,1.247,0.149,2.187,0.149,2.818c0.632-1.396,1.584-2.485,2.856-3.267c1.271-0.781,2.706-1.172,4.302-1.172
		c2.395,0,4.22,0.74,5.475,2.22C481.846,84.834,482.474,86.987,482.474,89.814z"/>
	<path fill="#FFFFFF" d="M185.721,129.682h6.136v16.86c0,1.58,0.278,2.761,0.835,3.542c0.557,0.782,1.417,1.173,2.582,1.173
		c1.38,0,2.457-0.558,3.23-1.672c0.773-1.113,1.16-2.668,1.16-4.664v-15.239h6.135v20.128c0,1.597,0.017,2.823,0.05,3.679
		c0.033,0.857,0.083,1.659,0.149,2.407h-5.562c-0.066-0.648-0.116-1.293-0.149-1.933c-0.034-0.641-0.05-1.293-0.05-1.958
		c-0.666,1.413-1.622,2.511-2.869,3.292s-2.677,1.172-4.29,1.172c-2.395,0-4.22-0.739-5.475-2.22
		c-1.256-1.479-1.883-3.641-1.883-6.484V129.682z"/>
	<path fill="#FFFFFF" d="M232.561,137.813v18.083h-6.135v-16.86c0-1.63-0.287-2.818-0.861-3.566s-1.476-1.123-2.706-1.123
		c-1.297,0-2.328,0.558-3.093,1.672c-0.765,1.114-1.147,2.652-1.147,4.614v15.264h-6.135v-20.128c0-1.181-0.021-2.261-0.063-3.242
		c-0.042-0.98-0.104-1.921-0.187-2.818h5.562c0.016,0.216,0.05,0.565,0.1,1.048c0.1,1.247,0.15,2.187,0.15,2.818
		c0.631-1.397,1.583-2.486,2.855-3.268s2.706-1.172,4.303-1.172c2.394,0,4.219,0.739,5.475,2.22
		C231.933,132.834,232.561,134.987,232.561,137.813z"/>
	<path fill="#FFFFFF" d="M253.362,117.686h6.061v38.21h-5.587c-0.1-0.914-0.162-1.658-0.187-2.232
		c-0.025-0.573-0.037-1.143-0.037-1.708c-0.848,1.563-1.833,2.706-2.956,3.429c-1.123,0.724-2.457,1.085-4.003,1.085
		c-2.91,0-5.15-1.172-6.722-3.517c-1.571-2.344-2.357-5.703-2.357-10.076c0-4.506,0.777-7.923,2.332-10.251
		c1.555-2.327,3.82-3.491,6.797-3.491c1.479,0,2.751,0.328,3.816,0.984c1.064,0.657,2.012,1.692,2.843,3.105V117.686z
		 M253.362,141.48c0-2.395-0.416-4.253-1.247-5.574c-0.832-1.322-1.987-1.983-3.467-1.983c-1.53,0-2.686,0.753-3.467,2.258
		c-0.782,1.505-1.172,3.72-1.172,6.646c0,2.943,0.387,5.159,1.16,6.646c0.773,1.488,1.933,2.232,3.479,2.232
		c1.479,0,2.635-0.661,3.467-1.982c0.831-1.322,1.247-3.181,1.247-5.574V141.48z"/>
	<path fill="#FFFFFF" d="M279.55,120.455h9.378c3.791,0,6.613,0.744,8.468,2.231c1.854,1.489,2.781,3.737,2.781,6.747
		c0,2.145-0.548,3.907-1.646,5.288c-1.097,1.38-2.644,2.277-4.639,2.693c2.378,0.449,4.148,1.384,5.313,2.806
		c1.164,1.422,1.746,3.363,1.746,5.824c0,3.358-1.035,5.84-3.105,7.444c-2.07,1.605-5.275,2.407-9.615,2.407h-8.68V120.455z
		 M285.661,125.343v10.027h2.469c1.995,0,3.462-0.407,4.402-1.223c0.939-0.814,1.409-2.095,1.409-3.841
		c0-1.729-0.486-2.988-1.459-3.778s-2.565-1.186-4.776-1.186H285.661z M285.661,139.959v11.024h2.569
		c2.228,0,3.857-0.437,4.889-1.31c1.031-0.873,1.546-2.258,1.546-4.153c0-1.962-0.503-3.379-1.509-4.252s-2.648-1.31-4.926-1.31
		H285.661z"/>
	<path fill="#FFFFFF" d="M319.382,129.234v5.761c-0.084,0-0.309-0.024-0.674-0.074c-0.366-0.05-0.657-0.075-0.873-0.075
		c-1.896,0-3.305,0.607-4.228,1.821s-1.384,3.06-1.384,5.537v13.692h-6.086v-20.128c0-1.181-0.021-2.261-0.063-3.242
		c-0.042-0.98-0.104-1.921-0.187-2.818l5.562-0.025c0,0.034,0.008,0.084,0.024,0.15c0.116,1.612,0.175,2.81,0.175,3.591v0.773
		c0.682-1.662,1.604-2.914,2.769-3.754c1.164-0.839,2.561-1.259,4.19-1.259h0.05C318.908,129.218,319.149,129.234,319.382,129.234z"
		/>
	<path fill="#FFFFFF" d="M342.204,144.448h-14.641c0.116,2.461,0.757,4.312,1.921,5.55c1.163,1.238,2.818,1.858,4.963,1.858
		c1.098,0,2.178-0.158,3.242-0.475c1.064-0.315,2.111-0.789,3.143-1.422v4.765c-1.131,0.565-2.299,0.984-3.504,1.259
		c-1.206,0.274-2.474,0.412-3.804,0.412c-3.874,0-6.867-1.173-8.979-3.517c-2.112-2.345-3.168-5.679-3.168-10.002
		c0-4.24,0.98-7.59,2.943-10.052c1.962-2.46,4.639-3.69,8.031-3.69c2.976,0,5.37,1.188,7.183,3.566s2.719,5.562,2.719,9.553
		c0,0.332-0.004,0.686-0.013,1.06S342.22,144.066,342.204,144.448z M336.492,140.732v-0.475c0-2.194-0.357-3.865-1.072-5.013
		s-1.771-1.721-3.168-1.721c-1.463,0-2.59,0.59-3.379,1.771c-0.79,1.181-1.26,2.993-1.409,5.438H336.492z"/>
	<path fill="#FFFFFF" d="M366.471,133.374c0.749-1.413,1.713-2.473,2.894-3.18c1.181-0.706,2.585-1.06,4.215-1.06
		c2.245,0,3.97,0.748,5.176,2.244c1.205,1.497,1.808,3.642,1.808,6.435v18.083h-6.061v-16.86c0-1.612-0.274-2.798-0.823-3.554
		c-0.549-0.757-1.405-1.136-2.568-1.136c-1.247,0-2.229,0.554-2.943,1.659s-1.072,2.647-1.072,4.627v15.264h-6.086v-16.86
		c0-1.612-0.274-2.798-0.823-3.554c-0.549-0.757-1.396-1.136-2.544-1.136c-1.264,0-2.253,0.554-2.968,1.659
		s-1.072,2.647-1.072,4.627v15.264h-6.086v-20.128c0-1.181-0.021-2.261-0.063-3.242c-0.042-0.98-0.104-1.921-0.187-2.818h5.562
		c0.017,0.216,0.05,0.565,0.1,1.048c0.1,1.247,0.149,2.187,0.149,2.818c0.599-1.363,1.505-2.444,2.719-3.243
		c1.214-0.798,2.561-1.196,4.041-1.196c1.579,0,2.938,0.361,4.077,1.085C365.054,130.942,365.906,131.994,366.471,133.374z"/>
	<path fill="#FFFFFF" d="M406.402,144.448h-14.641c0.116,2.461,0.757,4.312,1.921,5.55c1.163,1.238,2.818,1.858,4.963,1.858
		c1.098,0,2.178-0.158,3.242-0.475c1.064-0.315,2.111-0.789,3.143-1.422v4.765c-1.131,0.565-2.299,0.984-3.504,1.259
		c-1.206,0.274-2.474,0.412-3.804,0.412c-3.874,0-6.867-1.173-8.979-3.517c-2.112-2.345-3.168-5.679-3.168-10.002
		c0-4.24,0.98-7.59,2.943-10.052c1.962-2.46,4.639-3.69,8.031-3.69c2.976,0,5.37,1.188,7.183,3.566s2.719,5.562,2.719,9.553
		c0,0.332-0.004,0.686-0.013,1.06S406.418,144.066,406.402,144.448z M400.69,140.732v-0.475c0-2.194-0.357-3.865-1.072-5.013
		s-1.771-1.721-3.168-1.721c-1.463,0-2.59,0.59-3.379,1.771c-0.79,1.181-1.26,2.993-1.409,5.438H400.69z"/>
	<path fill="#FFFFFF" d="M431.793,137.813v18.083h-6.136v-16.86c0-1.63-0.287-2.818-0.86-3.566
		c-0.574-0.748-1.477-1.123-2.706-1.123c-1.298,0-2.328,0.558-3.093,1.672c-0.766,1.114-1.147,2.652-1.147,4.614v15.264h-6.136
		v-20.128c0-1.181-0.021-2.261-0.063-3.242c-0.042-0.98-0.104-1.921-0.187-2.818h5.562c0.017,0.216,0.05,0.565,0.1,1.048
		c0.1,1.247,0.149,2.187,0.149,2.818c0.632-1.397,1.584-2.486,2.856-3.268c1.271-0.781,2.706-1.172,4.302-1.172
		c2.395,0,4.22,0.739,5.475,2.22C431.166,132.834,431.793,134.987,431.793,137.813z"/>
</g>
</svg>